<svg width="118" height="46" viewBox="0 0 118 46" fill="none" xmlns="http://www.w3.org/2000/svg">
<path d="M11.957 22.5271C10.4703 20.0518 9.0962 17.7591 8.21412 15.5588C7.92154 14.6671 7.69181 13.7882 7.55093 12.9459C7.05029 10.5351 7.26052 9.11905 8.18811 7.168C8.20762 7.12717 8.22929 7.0842 8.25096 7.04337C8.69309 6.79412 9.30209 6.55991 9.99995 6.49115C11.5561 6.33859 14.1958 6.72966 15.2057 9.54665C16.272 12.5226 13.9964 18.3242 11.9592 22.5271H11.957ZM21.5624 5.74769C21.4605 5.5543 21.0856 4.85382 20.9555 4.61531C20.9317 4.57018 20.9143 4.54225 20.9122 4.5358C19.2694 1.54477 19.213 2.11203 18.1879 1.93154C18.1489 1.92509 18.1099 1.91435 18.073 1.90576C16.9049 1.63931 14.898 0.885108 13.9162 0.528418C12.9019 0.160985 10.2362 0.951718 8.5132 1.11932C8.07542 1.16229 7.73515 1.2418 7.46424 1.34494C6.67319 1.65006 6.47597 2.1679 6.14871 2.5912C5.95799 2.84045 5.82362 2.91566 5.64807 2.95649C5.64373 2.95649 5.6394 2.95649 5.63723 2.95649C4.29786 3.4335 1.13364 7.30337 1.8185 12.643C1.86834 13.1673 1.97887 13.6765 2.12191 14.1772C3.43095 19.3019 7.80884 26.1757 8.88381 28.1267C8.09059 29.9338 6.40011 33.6447 5.86263 37.1407C5.84096 37.2588 5.71092 38.0625 5.70225 38.7372C5.63073 40.5142 5.96666 42.1408 7.00478 43.3075C7.01128 43.314 7.20851 43.5246 7.21717 43.5331C7.74816 44.0531 8.3745 44.3819 9.00518 44.5796C9.89809 44.9599 10.5764 44.7472 11.2331 44.6376C11.5257 44.8138 11.8335 44.9492 12.1456 45.0566C14.0224 45.6991 16.1247 45.1834 17.1086 44.6376C18.4285 44.2121 19.031 43.445 19.4081 42.2525C19.7874 41.1309 20.3704 38.8403 19.0527 35.4518C18.461 33.9885 17.2712 31.6979 15.4398 28.3695L15.4268 28.3502C16.8962 25.5934 20.8298 18.7733 21.5298 16.7793C21.5689 16.674 21.6014 16.573 21.6339 16.4699C22.8237 13.453 23.5996 9.4607 21.5645 5.74554" fill="white"/>
<path d="M10.8408 31.7709C10.416 30.9608 9.48838 29.1924 9.29116 28.7734C7.13472 32.9398 6.60157 37.5682 6.56689 38.9133C6.58857 39.9468 6.5669 41.5154 8.04064 42.1837C9.99769 39.5407 6.56689 35.5935 10.8386 31.7709" fill="#ACA9A6"/>
<path d="M11.2894 3.2959C11.2591 3.2959 11.2309 3.30235 11.2027 3.30235C9.9609 3.42483 8.96612 4.40894 8.2921 5.82281C8.06237 6.30842 7.86732 6.84346 7.71777 7.41072C7.86732 7.2818 8.04503 7.15717 8.25092 7.04114C8.69522 6.79189 9.30422 6.55768 10.0021 6.48892C11.5582 6.33851 14.2001 6.72743 15.2079 9.54441C16.2742 12.5204 13.9985 18.322 11.9613 22.5249C12.9517 24.231 13.5586 25.3118 14.6791 27.1253C14.6791 27.1253 19.5294 19.796 19.5836 19.6864C21.1224 16.6137 21.9806 12.8427 21.7509 9.8216C21.3846 4.97836 18.3331 3.54086 18.2941 3.50433C18.2139 3.53871 18.1315 3.58168 18.047 3.62896C16.9677 4.27143 16.9395 5.29422 13.188 3.51292C12.787 3.32169 12.2517 3.27441 11.7987 3.27441C11.6124 3.27441 11.439 3.28086 11.2938 3.2916" fill="url(#paint0_linear_291_28130)"/>
<path d="M9.72055 28.3374C8.04092 30.6602 5.46403 43.0691 9.21124 42.6351C15.0954 41.8185 10.5008 29.921 9.72055 28.3374Z" fill="#9A9794"/>
<path d="M11.2894 3.2959C11.2591 3.2959 11.2309 3.30235 11.2027 3.30235C9.9609 3.42483 8.96612 4.40894 8.2921 5.82281C8.06237 6.30842 7.86732 6.84346 7.71777 7.41072C7.86732 7.2818 8.04503 7.15717 8.25092 7.04114C8.69522 6.79189 9.30422 6.55768 10.0021 6.48892C11.5582 6.33851 14.2001 6.72743 15.2079 9.54441C16.2742 12.5204 13.9985 18.322 11.9613 22.5249C12.9517 24.231 13.8035 25.9715 14.7722 27.7034C14.7722 27.7034 19.9715 18.7668 20.0257 18.6572C21.5667 15.5824 22.2277 11.9832 21.9763 9.76573C21.7205 7.51171 21.2762 6.70594 20.7171 5.87438C20.522 5.5843 18.3331 3.54086 18.2919 3.50433C18.2117 3.53871 18.1294 3.58168 18.0448 3.62895C16.9655 4.27143 16.9374 5.29422 13.1858 3.51292C12.7849 3.32169 12.2495 3.27441 11.7966 3.27441C11.6102 3.27441 11.4368 3.28086 11.2916 3.2916" fill="url(#paint1_linear_291_28130)"/>
<g style="mix-blend-mode:multiply" opacity="0.33">
<path d="M8.2921 6.03779C8.06237 6.52341 7.86948 7.05844 7.71777 7.62571C7.86732 7.49678 8.0472 7.37216 8.25092 7.25612C8.69305 7.00687 9.30205 6.77266 9.99991 6.7039C11.556 6.55349 14.1979 6.94241 15.2079 9.7594C16.2742 12.7354 13.9985 18.537 11.9613 22.7399C12.9517 24.446 13.8663 26.0253 14.8351 27.7593C14.8351 27.7593 19.9737 18.9839 20.0279 18.8743C21.5688 15.8016 23.0101 10.0387 20.613 6.17531C19.7613 4.80227 18.539 3.77303 18.4978 3.7365C18.3374 3.76014 18.1337 3.79666 18.0492 3.84609C16.9699 4.48856 17.3448 5.00855 13.5217 3.38411C13.2096 3.25089 12.8802 3.19287 12.5465 3.19287C10.7801 3.19287 8.86426 4.84954 8.2986 6.03779" fill="url(#paint2_linear_291_28130)"/>
</g>
<g style="mix-blend-mode:darken" opacity="0.33">
<path d="M10.1778 5.5481C10.5983 5.41273 11.0382 5.33752 11.476 5.2924C11.916 5.24513 12.3624 5.23868 12.8046 5.26661C13.691 5.32463 14.5796 5.5395 15.3728 5.9671C16.1682 6.3904 16.8422 7.03287 17.3277 7.79137C17.5682 8.17385 17.7633 8.57996 17.928 8.99896C18.0775 9.42226 18.2076 9.84986 18.2964 10.2903C18.6605 12.0545 18.4937 13.883 18.1231 15.6214C17.7481 17.3683 17.1673 19.0593 16.4911 20.6945C15.8214 22.334 15.039 23.9155 14.2458 25.4797L13.0386 27.8111L11.8531 30.1382C11.0902 31.6939 10.3534 33.2624 9.84407 34.8933C9.7162 35.3016 9.61 35.712 9.52548 36.1289C9.43662 36.5436 9.3716 36.9626 9.34993 37.3837C9.29791 38.226 9.39327 39.0855 9.73354 39.887L9.63167 39.9407C9.13537 39.1951 8.89047 38.2862 8.83412 37.3837C8.77343 36.4791 8.88396 35.5723 9.06601 34.6935C9.24156 33.8125 9.51247 32.9573 9.80722 32.1172C10.0998 31.277 10.4444 30.4583 10.7977 29.6483C12.2302 26.4144 13.9142 23.346 15.4096 20.2175C15.7781 19.4332 16.1443 18.6489 16.4694 17.8496C16.7988 17.0524 17.1023 16.2445 17.345 15.4215C17.837 13.782 18.1144 12.0545 17.863 10.3613C17.8066 9.93796 17.6918 9.5254 17.5682 9.11714C17.4295 8.71533 17.2583 8.32211 17.0481 7.95253C16.619 7.21766 16.0078 6.58593 15.2622 6.14974C14.5189 5.7114 13.665 5.4643 12.7959 5.37405C12.3603 5.32893 11.9203 5.31818 11.4825 5.34612C11.0447 5.37405 10.6069 5.43207 10.1822 5.55025V5.5395L10.1778 5.5481Z" fill="#797775"/>
</g>
<g style="mix-blend-mode:multiply" opacity="0.33">
<path d="M5.76486 37.9207C5.76486 40.4669 6.95686 41.956 7.90613 42.562C8.20955 42.7553 8.72319 42.8907 9.26501 42.9015H9.40805C9.62911 42.8972 9.85451 42.8714 10.0691 42.8198C11.532 42.4653 12.6416 41.0106 12.6676 38.301V38.1055C12.6568 37.0225 12.4791 35.7483 12.089 34.2721C11.9589 33.7779 10.9208 31.5433 10.7127 31.1479C10.288 30.3378 9.31269 28.4297 9.1133 28.0107C7.41632 31.814 5.7952 36.5734 5.7627 37.9207" fill="url(#paint3_linear_291_28130)"/>
</g>
<path d="M9.95683 6.07432C9.75528 6.09581 9.04875 6.23118 8.61963 6.37299L8.38773 6.72539L8.24902 7.04125C8.69331 6.792 9.30232 6.55779 10.0002 6.48903C11.5563 6.33861 14.1982 6.72753 15.206 9.54452C16.2723 12.5205 13.9966 18.3221 11.9594 22.525C11.916 22.6174 11.8705 22.7077 11.825 22.7979C12.1523 23.0708 12.4124 23.2792 12.4124 23.2792C12.473 23.1782 12.512 23.0966 12.5662 22.9934C14.6642 18.6573 16.7187 12.5162 15.6047 9.407C15.1713 8.19942 14.4214 7.2948 13.3768 6.71894C13.3118 6.68241 12.9152 6.49332 12.7765 6.44175C12.7093 6.41382 12.6421 6.39018 12.5749 6.36655C12.4449 6.32142 12.0374 6.21184 11.9702 6.1968C11.7167 6.13878 11.4523 6.09796 11.1857 6.07432C10.9863 6.05498 10.7826 6.04639 10.581 6.04639C10.3708 6.04639 10.1584 6.05498 9.95683 6.07432Z" fill="url(#paint4_linear_291_28130)"/>
<path d="M14.6748 27.1276C14.5122 26.8568 14.4147 26.7064 14.4125 26.7064C14.3518 26.6033 14.2933 26.5066 14.2326 26.4078C11.97 22.3746 9.53399 18.8636 8.20979 15.5588C7.9172 14.6671 7.68747 13.7861 7.5466 12.946C7.04813 10.5351 7.25619 9.11906 8.18595 7.16801C9.07886 5.29002 11.7793 2.9479 13.2899 3.66558C16.5473 5.21267 16.9829 4.46491 17.7675 3.83103C17.7913 3.81169 17.8542 3.76872 17.878 3.74508C17.8953 3.73219 17.995 3.66773 18.0124 3.65699C26.5558 10.1676 17.3969 22.7485 14.6726 27.1297L14.6748 27.1276ZM9.4603 42.3857C9.23491 42.4201 9.02035 42.4266 8.81446 42.4051C8.47419 42.36 8.13176 42.2267 7.80667 42.0054C7.34938 41.6938 7.01128 41.2319 6.83573 40.7097C6.30475 39.1347 6.41528 36.0019 9.25441 28.9067C9.54916 29.5449 9.82874 30.1444 9.95011 30.3894C11.5907 33.6834 11.9852 36.7045 11.9873 38.5073C11.8096 40.7785 10.7065 42.1537 9.46247 42.3857H9.4603ZM21.5624 5.74555C21.4605 5.55217 21.0856 4.85383 20.9555 4.61317C20.9317 4.56805 20.9143 4.54011 20.9122 4.53367C19.2694 1.54263 19.213 2.11205 18.1879 1.93155C18.1511 1.92511 18.1121 1.91436 18.073 1.90577C16.9049 1.63933 14.8958 0.885121 13.9162 0.528432C12.9041 0.160998 10.2362 0.951732 8.51537 1.11718C8.07541 1.16016 7.73732 1.23966 7.46641 1.3428C6.67536 1.64792 6.47813 2.16577 6.15088 2.58907C5.96016 2.83617 5.82578 2.91352 5.64807 2.95435C5.6459 2.95435 5.6394 2.95435 5.63723 2.9565C4.29786 3.43137 1.13364 7.30338 1.8185 12.6408C1.86618 13.1651 1.97888 13.6765 2.11975 14.1772C3.42878 19.3019 7.80667 26.1757 8.88164 28.1246C8.08842 29.9317 6.39794 33.6425 5.86046 37.1385C5.83879 37.2567 5.70875 38.0625 5.70008 38.7329C5.62856 40.5099 5.96232 42.1386 7.00261 43.3054C7.00912 43.3118 7.20634 43.5224 7.21717 43.531C7.74816 44.0489 8.3745 44.3798 9.00517 44.5796C9.89809 44.9599 10.5764 44.7472 11.231 44.6355C11.5257 44.8138 11.8313 44.947 12.1434 45.0545C14.0202 45.6991 16.1225 45.1812 17.1064 44.6355C18.4263 44.21 19.0266 43.4429 19.4059 42.2525C19.7852 41.1309 20.3682 38.8403 19.0527 35.4518C18.461 33.9885 17.2712 31.6979 15.4398 28.3696L15.4268 28.3502C16.8962 25.5934 20.8298 18.7733 21.532 16.7793C21.5689 16.674 21.6014 16.573 21.636 16.472C22.8259 13.4531 23.6018 9.46071 21.5667 5.74555" fill="#EFECE8"/>
<path d="M18.023 21.8742C17.8995 22.0719 17.5852 22.5382 17.193 23.114C16.2155 24.7535 15.2879 26.1438 14.6768 27.1236C14.8761 27.4416 15.3183 28.1571 15.5068 28.4966C15.483 28.4536 15.4591 28.4107 15.4375 28.3677L15.4245 28.3483C15.5177 28.1722 15.6239 27.9788 15.7366 27.7703C15.7409 26.6616 17.6416 22.7337 18.023 21.8721" fill="#DAD7D3"/>
<path d="M13.9011 1.25888C13.1794 0.876409 12.2604 0.906491 11.3827 1.05905C11.114 1.10632 10.4746 1.22665 10.4746 1.22665C10.4746 1.22665 11.7685 1.54252 12.8023 1.9035C13.4676 2.15705 14.5838 2.58465 15.9296 1.87987L15.9556 1.82185C15.3358 1.75524 14.5881 1.62202 13.9032 1.25673" fill="#BBB8B5"/>
<path d="M9.68992 1.56185C9.39301 1.67788 9.1351 1.78102 8.95088 1.88201C6.52354 3.21637 5.83434 4.53784 5.71731 4.64528C5.64796 5.1094 5.54176 5.46609 5.48975 6.03121C5.93837 6.26112 8.11648 5.83997 9.56422 4.70974C9.7441 4.56148 9.93266 4.41751 10.1299 4.28214C10.2057 4.22412 10.2751 4.1876 10.3336 4.14462C10.3336 4.14462 10.3509 4.12313 10.3596 4.11884C11.1875 3.38612 12.1628 1.58763 13.073 2.03242C13.1467 2.06895 13.2182 2.10118 13.2876 2.12911C13.1792 2.0668 13.073 2.00663 12.9625 1.94862C12.3102 1.60052 11.6188 1.34912 10.8689 1.34912C10.4918 1.34912 10.0974 1.41358 9.68559 1.56185" fill="url(#paint5_linear_291_28130)"/>
<path d="M6.10095 3.05345C5.99259 3.31989 5.90373 3.57774 5.84305 3.9065C5.7997 4.13211 5.76069 4.37922 5.72168 4.64566C7.25177 2.76337 8.79487 1.9576 8.95525 1.88239C9.13514 1.79429 9.62494 1.46124 9.84383 1.38818C8.1837 1.83512 7.25611 2.50552 6.2635 2.8042C6.22015 2.84288 6.12696 2.99114 6.10095 3.05345Z" fill="#F6F2EE"/>
<path d="M14.2347 3.70663C11.6968 2.29707 10.3878 4.08911 10.3878 4.09126C10.3791 4.09341 10.3726 4.11919 10.3661 4.12134C9.46451 4.92067 8.56076 6.03586 8.18799 7.16824C9.08307 5.29025 11.7835 2.94813 13.2941 3.66581C16.8679 5.36116 17.0478 4.30398 18.0166 3.65506C17.3079 4.07836 16.7227 5.08827 14.2347 3.70663Z" fill="#EBE7E3"/>
<path d="M17.7653 3.77951C16.0987 4.46925 14.976 3.11555 13.2921 2.13143C13.2206 2.10135 13.149 2.06912 13.0775 2.03259C11.9094 1.45458 9.94147 4.51652 9.94581 4.51437C10.3207 4.23934 11.6948 2.29688 14.2327 3.7086C16.7185 5.09023 17.0891 4.30595 17.7653 3.83323C17.8 3.80959 18.0146 3.65703 18.0146 3.65703C18.0146 3.65703 17.7978 3.75587 17.7653 3.78166" fill="#FFFBF7"/>
<path d="M9.56648 4.70996C8.11657 5.80152 5.94063 6.2592 5.492 6.03143C5.29478 8.18876 4.82015 10.98 5.30345 14.1322C5.51367 15.5095 5.79542 16.9749 6.02949 18.4253C5.43565 13.7927 5.30995 8.23173 9.56648 4.70996Z" fill="#EFECE8"/>
<path d="M7.46434 1.34282C6.67328 1.64794 6.47606 2.16579 6.1488 2.58909C5.95592 2.83834 5.82371 2.91355 5.646 2.95437C5.76736 2.92859 5.9104 2.89421 6.07295 2.85553C6.51507 2.74595 6.89001 2.58264 7.3278 2.39141C7.73091 2.21521 8.18604 2.01538 8.7712 1.77902C9.09629 1.64794 9.78332 1.40084 10.1453 1.302C10.5115 1.20316 11.4651 1.042 11.5171 1.03126C11.5171 1.03126 11.8834 0.983987 12.0026 0.966797C11.9679 0.968946 7.96931 1.19671 7.46217 1.34282" fill="#EFECE8"/>
<path d="M11.9051 0.975489C11.8206 0.981935 7.97154 1.19896 7.46657 1.34507C6.67551 1.65019 6.47829 2.16804 6.15103 2.59134C5.95814 2.84059 5.82594 2.91579 5.65039 2.95662C5.77176 2.93084 5.9148 2.8986 6.07518 2.85778C6.5173 2.74819 6.89224 2.58489 7.33219 2.39365C7.73531 2.21746 8.19043 2.01977 8.7756 1.78126C9.09852 1.65019 9.78772 1.40094 10.1475 1.30424C10.5159 1.20755 11.4327 1.04855 11.5194 1.03565C11.6407 1.01846 11.8856 0.988381 12.0048 0.971191C11.9702 0.971191 11.9376 0.97334 11.9051 0.975489Z" fill="url(#paint6_linear_291_28130)"/>
<path d="M17.6678 43.6663C17.6288 43.748 17.5984 43.821 17.5572 43.8919C17.4185 44.1627 17.2668 44.4119 17.1064 44.6375C18.435 44.2099 19.0288 43.4557 19.4059 42.2524C17.9994 43.7179 17.6699 43.6663 17.6699 43.6663" fill="#D2CFCB"/>
<path d="M14.5815 44.0683C13.5238 43.6085 12.6743 44.5109 12.1411 45.0567C14.018 45.6992 16.1202 45.1835 17.1042 44.6377C17.2645 44.4142 17.4163 44.1628 17.555 43.8921C17.0001 44.8075 15.6022 44.5131 14.5793 44.0683" fill="#DEDBD7"/>
<path d="M11.3306 42.5063C11.8659 41.4599 12.1498 39.5668 11.9895 38.5054C11.8096 40.768 10.7064 42.1518 9.4646 42.3838C9.2392 42.4204 9.02247 42.4247 8.81875 42.4032C8.47849 42.358 8.13606 42.227 7.8088 42.0035C7.75462 41.967 7.7026 41.9262 7.65059 41.8853C6.70349 41.606 5.94061 40.8088 5.71521 39.8354C5.71521 39.8247 5.70871 39.8161 5.70654 39.8075C5.71521 39.9665 5.73038 40.1234 5.74989 40.2802L5.75422 40.3146C5.81274 40.7852 5.91027 41.2364 6.05764 41.6619C7.10227 43.5377 10.1083 44.8936 11.3306 42.5085" fill="#EBE7E3"/>
<path d="M9.46445 42.3836C9.23906 42.4202 9.02449 42.4245 8.8186 42.403C8.47834 42.3578 8.13591 42.2268 7.81082 42.0033C7.56158 41.8314 7.34486 41.6165 7.17148 41.3694C6.31324 40.4885 5.84077 38.9199 5.76708 37.8541V37.8154H5.76492C5.73241 38.0991 5.70423 38.43 5.6999 38.7351C5.67389 39.3819 5.6999 40.0071 5.79742 40.598C5.80176 40.6088 5.80176 40.6195 5.80393 40.6324C6.75319 42.4223 9.38643 44.2058 11.1398 41.1932C10.6846 41.8593 10.093 42.2676 9.46445 42.3836Z" fill="#F2EFEA"/>
<path d="M20.9124 4.53376C19.2696 1.54272 19.2133 2.10999 18.1881 1.93164C16.7989 2.0047 15.245 2.96733 13.2944 2.13147C16.0382 3.76021 18.3507 0.247035 20.9514 4.60251C20.9514 4.60681 20.9839 4.66268 20.9861 4.66698C20.9752 4.64764 20.9666 4.63045 20.9579 4.61541C20.9341 4.57028 20.9189 4.54235 20.9146 4.5359" fill="#E7E4E0"/>
<path d="M18.0145 3.6548C18.0297 3.6462 18.047 3.63546 18.0643 3.62472C18.6798 3.2229 19.8827 3.01018 20.9555 4.61313C19.3799 1.96804 17.9126 2.21085 16.389 2.45581C15.3942 2.61481 14.3778 2.77382 13.292 2.13135C14.8178 3.10687 16.5537 4.55297 18.0145 3.6548Z" fill="url(#paint7_linear_291_28130)"/>
<path d="M9.00291 44.5798C9.69211 44.1522 10.2816 43.5548 10.7497 42.8608C9.44504 44.049 6.62108 43.6644 5.79102 40.5767C5.9579 41.6209 6.335 42.5578 7.00035 43.3055C7.00686 43.3141 7.20408 43.5226 7.21491 43.5312C7.7459 44.0512 8.37224 44.3799 9.00291 44.5798Z" fill="#CCC9C6"/>
<path d="M13.9139 0.526465C12.9018 0.159032 10.2339 0.949765 8.5131 1.11737C8.07531 1.16034 7.73505 1.23984 7.46631 1.34298C8.48493 1.12381 8.55428 1.34298 11.5386 1.01208C11.5538 1.00993 11.9309 0.973401 12.0263 0.969104C12.6959 0.926129 13.357 0.969104 13.9031 1.26133C14.588 1.62447 15.236 1.77918 15.8558 1.84579C16.6274 1.92744 17.3599 1.87157 18.0729 1.9081C16.9069 1.64166 14.8979 0.885303 13.9161 0.530762" fill="#F2EFEA"/>
<path d="M13.1318 0.431836C11.8769 0.451175 9.8917 0.98406 8.51332 1.11943C8.07336 1.16241 7.73526 1.24191 7.46436 1.34505C8.49381 1.14092 8.59784 1.3429 11.5367 1.01199C11.5497 1.00985 11.9289 0.973317 12.0221 0.966871C12.694 0.923896 13.3528 0.969019 13.899 1.2591C14.5838 1.62438 15.2319 1.77694 15.8517 1.8414C16.3177 1.89083 16.7685 1.89083 17.2084 1.89083C17.4988 1.89083 17.7849 1.89083 18.0688 1.90372C16.9007 1.63727 14.8916 0.88307 13.912 0.52638C13.7386 0.464067 13.5175 0.433985 13.2596 0.429688H13.1274L13.1318 0.431836Z" fill="url(#paint8_linear_291_28130)"/>
<path d="M15.8539 1.84375L15.7737 1.88458C14.6619 2.47977 13.6346 2.20259 12.9692 1.95119C13.0776 2.0092 13.186 2.06937 13.2922 2.13383C15.2427 2.96969 16.7966 2.00705 18.1859 1.93185C18.149 1.9254 18.11 1.91466 18.071 1.90606C17.3601 1.86953 16.6276 1.92755 15.8539 1.84375Z" fill="#EBE7E3"/>
<path d="M18.0231 35.5935C16.7596 30.0691 14.0115 26.4722 11.5928 23.5241C9.53821 21.0251 8.41989 18.3285 7.90625 15.8896C7.9561 16.4483 8.00378 17.0349 8.04062 17.6323C8.50875 21.0208 9.78311 25.0454 13.5325 29.5986C16.9394 33.7349 17.659 34.3 18.0231 35.5914" fill="#FFFBF7"/>
<path d="M21.0184 4.73145L21.0574 4.82169C21.066 4.84318 21.2936 5.37392 21.3023 5.39325C21.9351 6.86514 21.2806 8.07917 21.1549 8.2876C22.0673 11.4914 21.1115 15.1571 19.627 18.4898C18.9811 19.9488 19.005 21.2573 18.8164 22.1813C18.8164 22.177 18.8207 22.1727 18.8229 22.1684C20.0539 19.9101 21.1809 17.7614 21.5255 16.7815C21.5623 16.6762 21.5948 16.5753 21.6295 16.4721C22.8194 13.4553 23.5952 9.46295 21.5602 5.7478C21.4713 5.58019 21.1766 5.03012 21.0162 4.73145" fill="#EBE7E3"/>
<path d="M18.0146 3.65475C18.9141 4.34019 19.5382 5.15026 20.0736 5.95389C19.8915 4.67969 19.5664 3.41409 18.4914 3.52153C18.3571 3.53657 18.2292 3.5602 18.1013 3.61392C18.097 3.61392 18.0862 3.59888 18.0146 3.65475Z" fill="#DEDBD7"/>
<path d="M21.3306 5.36744C21.3219 5.34595 20.6912 4.43918 20.3315 4.07605C19.937 3.65275 19.3649 3.3992 18.862 3.41209C18.4004 3.42498 18.2184 3.54531 18.0753 3.61622C18.0537 3.62696 18.0255 3.6463 18.0146 3.6549C19.5534 3.21656 19.8482 4.69273 20.0736 5.95189C20.5677 6.6932 20.9231 7.47749 21.1529 8.29186C21.2396 8.12856 21.8941 6.81568 21.3262 5.36744" fill="#CCC9C6"/>
<path d="M12.1434 45.0544C12.8131 44.5129 13.3636 43.922 14.0679 43.9456C13.5608 43.9242 11.6687 44.3281 11.231 44.6354C11.5257 44.8116 11.8313 44.947 12.1434 45.0544Z" fill="#D2CFCB"/>
<path d="M18.6084 39.3409C18.5889 38.8252 18.5303 38.3138 18.435 37.8217C18.2443 36.8397 17.8953 35.9244 17.36 35.1745C15.3878 32.4155 10.6588 27.3294 9.43213 23.3672C9.78756 25.8511 9.18073 28.8379 10.1842 30.3033C10.5244 30.7395 10.856 31.1692 11.1703 31.5904C13.576 34.4375 16.3782 36.0898 16.2894 40.1273C16.2417 42.2674 15.5157 43.0302 14.4559 44.0165C14.497 44.0294 14.5404 44.0466 14.5837 44.0659C15.6089 44.5086 17.0024 44.8051 17.5572 43.8897C18.2746 42.4995 18.6821 41.2146 18.6084 39.3387" fill="#EFECE8"/>
<path d="M16.4737 40.4712C17.1109 35.2756 14.0854 32.493 11.2029 29.2205C10.8691 28.853 9.90686 28.434 10.284 29.2957C11.9116 31.8312 12.9952 34.2915 13.2531 35.3143C14.7724 41.3544 13.1036 43.2646 11.2289 44.6376C11.6667 44.3282 13.5587 43.9243 14.0659 43.9479C14.1894 43.9522 14.3194 43.9737 14.4538 44.0209C15.3164 43.2173 15.9189 42.7962 16.2591 41.5177C16.3068 41.3393 16.3502 41.1416 16.3935 40.9246C16.4217 40.7828 16.452 40.6345 16.4715 40.4755" fill="#E7E4E0"/>
<path d="M14.2501 36.6744C13.5457 33.881 11.8791 29.5212 8.92075 25.7158C8.87524 25.8512 8.61516 26.6742 8.39844 27.2844C8.59566 27.6217 8.76037 27.9054 8.88174 28.1245C9.03345 28.4168 9.13098 28.6188 9.25668 28.9024C9.55143 29.5406 9.83101 30.1401 9.95237 30.385C11.5952 33.679 11.9874 36.7001 11.9896 38.5029C12.111 40.7655 10.971 43.3591 9.00311 44.5774C9.89602 44.9599 10.5744 44.745 11.2311 44.6333C12.8327 44.0553 15.7715 42.7123 14.2522 36.6722" fill="#F2EFEA"/>
<path d="M4.25448 4.63277C2.26926 7.32298 1.77729 11.6849 2.57268 14.0012C3.58696 16.9622 4.03992 18.4255 6.54312 22.3856C6.77285 22.7487 5.24492 16.6958 4.91116 15.2217C4.60558 13.8745 3.67799 8.36942 5.63937 4.02898C5.82142 3.62716 6.02948 3.18238 6.26354 2.8042C5.47682 3.21246 4.8093 3.88286 4.25665 4.63062" fill="url(#paint9_linear_291_28130)"/>
<path d="M10.52 3.30273C9.60975 3.73678 8.82303 4.38355 8.15984 5.11412C7.49666 5.84898 6.98085 6.70203 6.62108 7.61094C5.90371 9.43951 5.84736 11.4593 6.16162 13.3953C6.45853 15.3442 7.16723 17.2287 7.57251 19.2162C7.7784 20.2068 7.89327 21.2232 7.85859 22.2374C7.82392 23.2494 7.64403 24.255 7.32978 25.2069C7.527 24.2228 7.62886 23.2279 7.58985 22.2374C7.55951 21.2468 7.39046 20.2691 7.1564 19.3065C6.91583 18.346 6.61891 17.392 6.3285 16.4315C6.04675 15.4667 5.78451 14.4869 5.62413 13.4791C5.47026 12.4735 5.40957 11.4464 5.49193 10.4258C5.54178 9.91653 5.6133 9.40728 5.739 8.90878C5.8582 8.41027 6.01858 7.91821 6.23097 7.45194C6.64275 6.51079 7.23659 5.64915 7.96912 4.93577C8.706 4.23099 9.5599 3.63149 10.52 3.30488" fill="#CCC9C6"/>
<path d="M8.4568 27.2072C8.65836 26.6722 8.7884 26.1178 8.84908 25.5548C8.89893 24.9897 8.91193 24.4246 8.86859 23.8574C8.8079 22.725 8.63452 21.599 8.46331 20.4731C8.29859 19.345 8.10787 18.2212 7.954 17.091C7.79145 15.9629 7.73944 14.8284 7.62891 13.6938L8.66703 20.443C8.83824 21.5711 8.99646 22.7056 9.03547 23.8509C9.05714 24.4246 9.02463 24.9983 8.95528 25.5677C8.85775 26.135 8.70387 26.6915 8.45464 27.2072" fill="#CCC9C6"/>
<path d="M5.59835 4.12129C5.37728 4.83897 5.17573 5.56309 5.02835 6.29581C4.87014 7.02852 4.75528 7.76769 4.68159 8.51115C4.52988 9.99592 4.52988 11.4957 4.68592 12.9805C4.83113 14.4653 5.18223 15.9243 5.555 17.3747C5.73922 18.1031 5.93861 18.8251 6.10765 19.5599C6.2637 20.2948 6.41324 21.0404 6.39157 21.7946C6.35689 21.0426 6.18351 20.312 5.98629 19.5879C5.79123 18.8637 5.57234 18.1461 5.36428 17.4241C4.94166 15.9823 4.59707 14.5061 4.42802 13.0041C4.35 12.2521 4.31532 11.4979 4.32616 10.7415C4.33699 9.98733 4.376 9.23312 4.4757 8.48536C4.57539 7.73761 4.71627 6.99629 4.89832 6.26358C5.08904 5.53516 5.31877 4.81748 5.59835 4.11914" fill="#CCC9C6"/>
<path d="M4.18076 4.73799C3.847 5.36112 3.6216 6.03367 3.43955 6.71267C3.2575 7.39167 3.12963 8.08571 3.02994 8.77975C2.83922 10.1721 2.81755 11.5838 2.96492 12.9741C3.11013 14.3665 3.44606 15.7395 4.00738 17.018C4.29346 17.6519 4.61855 18.2857 4.93714 18.9089C5.25139 19.5385 5.61333 20.1423 5.95142 20.7675C5.72386 20.4925 5.51147 20.211 5.30341 19.9209C5.10185 19.6309 4.90463 19.3322 4.72041 19.0271C4.54053 18.7198 4.36715 18.4082 4.20677 18.0924C4.04422 17.7808 3.88818 17.4563 3.74514 17.1297C3.17948 15.8169 2.85006 14.4116 2.71352 12.9977C2.57048 11.5817 2.6485 10.1528 2.86739 8.75397C2.98226 8.05563 3.1383 7.36159 3.34853 6.68474C3.55875 6.01004 3.81232 5.33963 4.18293 4.73584" fill="#DEDBD7"/>
<path d="M5.71945 4.64533C6.36963 3.66551 7.26905 2.86189 8.24649 2.19578C8.73846 1.86487 9.27161 1.58554 9.84161 1.38786C10.0475 1.3191 10.2556 1.26108 10.4723 1.2267C10.5568 1.21166 10.6457 1.20521 10.7324 1.19877C10.8884 1.19232 11.0444 1.18802 11.2005 1.21381C11.3587 1.23315 11.5104 1.28257 11.6491 1.32984C12.7869 1.73165 13.773 2.40636 14.77 3.01445C15.2685 3.31742 15.7778 3.60965 16.3326 3.78369C16.6078 3.87179 16.8961 3.92551 17.1843 3.90617C17.4726 3.88898 17.7587 3.80303 18.0122 3.65262C17.7738 3.82452 17.4877 3.9384 17.1908 3.97278C16.8917 4.01146 16.5883 3.97278 16.2979 3.90187C15.7149 3.74931 15.1861 3.46568 14.6703 3.18205C13.6408 2.60834 12.6656 1.93578 11.5668 1.57265C11.4259 1.52967 11.298 1.48455 11.1636 1.46521C11.0293 1.44157 10.8884 1.44157 10.7497 1.44587C10.4701 1.46091 10.1905 1.52538 9.91746 1.61132C9.36914 1.78752 8.8555 2.06471 8.35702 2.36338C7.86072 2.66635 7.39042 3.01445 6.9483 3.39477C6.50184 3.7708 6.08355 4.18121 5.71729 4.64104" fill="#CCC9C6"/>
<path d="M18.0146 3.65472C18.2487 3.46349 18.55 3.33671 18.8686 3.31522C19.185 3.29374 19.5079 3.36679 19.7896 3.50861C20.2903 3.76001 20.6631 4.11885 20.9556 4.61306C20.9643 4.6281 20.9946 4.68182 21.0228 4.73554C21.0402 4.76777 21.0575 4.80215 21.0662 4.81934C21.3804 5.39735 21.5841 5.95602 21.608 6.57055C21.6405 7.18294 21.4996 7.79103 21.1572 8.29384C21.4281 7.76955 21.5235 7.1679 21.4693 6.5813C21.4108 5.99469 21.2157 5.42313 20.9145 4.91818C20.6175 4.41323 20.2079 3.96629 19.7008 3.68051C19.4472 3.54084 19.1633 3.45489 18.8729 3.4463C18.5803 3.4377 18.2856 3.51291 18.0168 3.65687" fill="#BBB8B5"/>
<path d="M9.12207 25.5957C9.40382 26.8914 9.83727 28.1484 10.4484 29.3173C10.7475 29.9061 11.0878 30.4733 11.4606 31.017L12.0327 31.8313L12.3188 32.2439C12.412 32.3814 12.4987 32.5275 12.5875 32.6672C12.9495 33.228 13.2594 33.8211 13.5541 34.4205C13.8316 35.0265 14.07 35.6518 14.2563 36.2942C14.4341 36.9367 14.5663 37.5921 14.6248 38.2539C14.6898 38.9157 14.6985 39.195 14.6746 39.8568C14.6595 39.195 14.6291 38.9178 14.5359 38.2646C14.4492 37.6093 14.3105 36.9625 14.1176 36.3351C13.9204 35.7055 13.6647 35.0974 13.3894 34.4979C13.0925 33.9091 12.7848 33.3247 12.4207 32.7725C12.3296 32.635 12.2451 32.4931 12.1519 32.3556L11.8658 31.9495C11.6773 31.6788 11.4801 31.408 11.2958 31.1308C10.9252 30.5765 10.585 29.9963 10.2902 29.399C9.7029 28.2 9.30629 26.9086 9.12424 25.5957" fill="#CCC9C6"/>
<path d="M8.75168 22.0266C8.85354 22.9204 9.08761 23.795 9.35851 24.6523C9.62942 25.5097 9.95668 26.3477 10.3381 27.1599C11.1032 28.7843 12.0828 30.3185 13.3463 31.5949C13.6649 31.9064 13.9965 32.2309 14.2934 32.5747C14.5925 32.9185 14.8634 33.2859 15.1126 33.6684C15.6089 34.4333 15.9882 35.2713 16.2353 36.148C16.6471 37.6178 16.7034 39.1691 16.4455 40.6604C16.3957 40.9461 16.3328 41.2341 16.2591 41.5156C16.4368 40.6303 16.5257 39.7321 16.4932 38.8361C16.4693 37.9401 16.335 37.0484 16.0749 36.1932C15.8127 35.3401 15.4442 34.5171 14.9501 33.7715C14.703 33.3998 14.4343 33.041 14.1374 32.7058C13.8426 32.3663 13.5197 32.0633 13.1968 31.7367C11.9246 30.4281 10.932 28.8767 10.1929 27.2243C9.82448 26.3971 9.51239 25.5462 9.26099 24.6781C9.13745 24.2441 9.02909 23.8057 8.93807 23.3631C8.84921 22.9204 8.77118 22.4756 8.74951 22.0244" fill="#D2CFCB"/>
<path d="M19.5793 19.6887C20.0518 18.7777 20.4397 17.8344 20.78 16.876C21.1202 15.9177 21.402 14.94 21.6296 13.9516C21.8528 12.9632 22.011 11.9576 22.0738 10.9477C22.0999 10.4427 22.0999 9.93348 22.0457 9.43067L22.0067 9.0525L21.9265 8.68076L21.8875 8.49382C21.8723 8.43151 21.8441 8.3735 21.8268 8.31333L21.7032 7.9502C22.1865 8.86556 22.3036 9.93133 22.3014 10.9541C22.3014 11.4698 22.2646 11.9855 22.1974 12.4969C22.1345 13.0083 22.0457 13.5154 21.933 14.0182C21.7141 15.0238 21.4085 16.0122 21.0249 16.9684C20.6391 17.9225 20.1666 18.8464 19.5771 19.6887" fill="#FFFBF7"/>
<path d="M8.31797 19.3254C8.28112 19.1514 8.25945 19.0547 8.25945 19.0547C8.25945 19.0547 8.27895 19.1514 8.31797 19.3254ZM8.18359 26.9212C8.28112 27.0888 8.36348 27.222 8.448 27.3703C8.48701 27.439 8.53036 27.5121 8.57154 27.583C11.933 33.4082 17.2016 37.6584 14.2411 42.2567C13.9767 42.6671 13.7058 43.0904 13.2442 43.4987C13.7795 43.0625 14.1978 43.114 14.5727 43.1678C14.9672 43.2236 15.3118 43.2795 15.6975 42.7616C15.8059 42.6155 15.9511 42.3792 16.0746 42.0741C16.1418 41.9129 16.2003 41.7367 16.261 41.5132C16.261 41.5132 17.8756 43.6749 19.4556 42.1041C19.9866 40.3508 20.199 37.7078 17.8388 34.835C15.1535 31.5689 13.4804 31.238 11.3131 27.5551C9.59882 24.6435 8.56937 20.4234 8.32013 19.3233C8.57154 20.5137 9.47962 25.2989 8.18576 26.919" fill="url(#paint10_linear_291_28130)"/>
<path d="M5.0458 5.96931C4.5625 8.07722 4.25908 11.1649 4.74455 14.3171C4.95478 15.6966 5.98423 18.7048 6.2183 20.1574C5.62663 15.5269 3.40301 6.66335 10.5225 3.30273C8.82769 3.71959 5.49443 6.19708 5.0458 5.96931Z" fill="url(#paint11_linear_291_28130)"/>
<path d="M12.8153 39.1562C12.8586 37.0806 12.462 35.0328 11.8053 33.0861C11.1465 31.135 10.2211 29.2828 9.15476 27.5187C8.62378 26.6334 8.06895 25.746 7.55098 24.8478C7.03083 23.9475 6.52152 23.0429 6.03605 22.1211C5.06728 20.2839 4.15703 18.4081 3.47217 16.4463C3.89479 17.396 4.34775 18.3243 4.83755 19.2375C5.31869 20.155 5.81933 21.0618 6.3308 21.9621C7.35159 23.767 8.42872 25.5311 9.51452 27.3038C10.5873 29.0937 11.5063 30.9868 12.1131 32.9872C12.4187 33.9864 12.6441 35.0092 12.7719 36.0427C12.8933 37.0763 12.9171 38.1227 12.8175 39.1541" fill="#E1DEDA"/>
<path opacity="0.5" d="M4.83538 19.2397C5.31652 20.1572 5.81716 21.064 6.32863 21.9643C6.53886 22.3361 6.75125 22.7056 6.96798 23.0752C7.58565 24.0486 8.27485 25.0521 9.03122 26.0254C12.5032 30.4926 14.6856 35.0437 13.1122 39.4357C12.8261 40.235 12.9692 40.611 13.3333 40.6261H13.3809C14.3801 40.5852 16.8161 38.0927 16.8551 34.3389V34.1562C16.8291 31.5778 15.6652 28.4256 12.1629 25.0735C6.71658 20.9738 3.47217 16.4507 3.47217 16.4507C3.89479 17.3983 4.34558 18.3287 4.83755 19.2419" fill="url(#paint12_linear_291_28130)"/>
<path d="M9.25669 28.9024C9.13099 28.6187 9.03346 28.4167 8.88175 28.1245C8.0907 29.9316 6.40022 33.6446 5.86057 37.1384C5.8389 37.2566 5.70886 38.0624 5.7002 38.735C5.7132 38.8553 5.73054 38.967 5.75221 39.0723C6.22901 41.1093 6.97022 41.4552 7.27797 41.5068C7.08508 41.2705 6.93771 40.9997 6.84018 40.7053C6.31137 39.1303 6.41973 35.9953 9.25886 28.9024" fill="#F2EFEA"/>
<path d="M19.0503 35.4517C18.4586 33.9884 17.2688 31.6979 15.4353 28.3695L15.4244 28.3502C15.4244 28.3502 14.2368 26.4056 14.2346 26.4056C11.9741 22.3745 9.53811 18.8635 8.21391 15.5566C7.92132 14.6649 7.69159 13.7861 7.55072 12.9438C7.55072 12.9395 7.55072 12.9373 7.55072 12.933C7.55072 12.9266 7.55072 12.9223 7.54639 12.918C7.67426 13.7366 7.64175 14.5832 7.90832 15.8875C8.42413 18.3263 9.54028 21.0208 11.5949 23.522C14.0157 26.4679 16.7638 30.067 18.0273 35.5914C18.1899 36.3026 18.4326 37.8862 18.528 39.3538C18.6428 41.1244 18.3091 42.362 17.6719 43.6663C17.6871 43.6878 18.0707 44.1949 19.1825 42.6564C19.2713 42.5232 19.3429 42.3857 19.4079 42.2503C19.7871 41.1287 20.3701 38.8403 19.0546 35.4496" fill="#FFFBF7"/>
<path d="M3.36816 8.71282C3.36816 9.62818 4.11587 10.3673 5.03697 10.3673C5.96022 10.3673 6.70793 9.62818 6.70793 8.71282C6.70793 7.79746 5.96022 7.05615 5.03697 7.05615C4.11371 7.05615 3.36816 7.79746 3.36816 8.71282ZM5.26019 7.93069C5.09115 7.86622 4.98495 7.70722 4.98495 7.53532C5.00229 7.53532 5.01963 7.53102 5.03697 7.53102C5.31004 7.53102 5.55928 7.62557 5.76083 7.78027C5.68064 7.89201 5.54844 7.95862 5.4119 7.95862C5.35989 7.95862 5.31004 7.95002 5.26019 7.93069ZM3.92732 8.28952C4.02918 8.02953 4.22207 7.8168 4.46697 7.68358C4.50382 7.74589 4.52766 7.81895 4.52766 7.89631C4.52766 8.13267 4.33477 8.3239 4.09637 8.3239C4.03568 8.3239 3.9815 8.31316 3.92732 8.29167V8.28952ZM4.78123 9.13612L4.56667 8.73431C4.54283 8.68919 4.5515 8.63332 4.58617 8.59679L4.90693 8.27019C4.94377 8.23366 4.99795 8.22291 5.04563 8.2444L5.45742 8.44423C5.5051 8.46572 5.5311 8.51514 5.52243 8.56671L5.45958 9.0158C5.45308 9.06737 5.4119 9.10819 5.36206 9.11679L4.91126 9.19414C4.91126 9.19414 4.89609 9.19414 4.88959 9.19414C4.84625 9.19414 4.80507 9.1705 4.78339 9.13183L4.78123 9.13612ZM5.84753 8.79662C5.84753 8.59464 5.99057 8.42704 6.17912 8.37977C6.21163 8.48721 6.2333 8.59464 6.2333 8.71282C6.2333 8.88472 6.19429 9.04803 6.1271 9.19414C5.96456 9.13398 5.84753 8.97927 5.84753 8.79662ZM3.88398 8.99216C3.91865 8.98356 3.9555 8.97712 3.99234 8.97712C4.22857 8.97712 4.42363 9.16836 4.42363 9.40472C4.42363 9.50356 4.39112 9.58951 4.33477 9.66256C4.11371 9.49926 3.95116 9.26505 3.88398 8.99216ZM4.93294 9.88388C4.95894 9.67331 5.13883 9.51215 5.35772 9.51215C5.50076 9.51215 5.62863 9.58306 5.70665 9.69265C5.51593 9.81942 5.2862 9.89463 5.03913 9.89463C5.00229 9.89463 4.96761 9.88818 4.93294 9.88388Z" fill="url(#paint13_linear_291_28130)"/>
<path d="M5.23633 5.71109L5.6221 6.3729L6.28962 5.99042L5.90385 5.32861L5.23633 5.71109Z" fill="url(#paint14_linear_291_28130)"/>
<path d="M4.28711 11.6482L4.8441 12.179L5.37942 11.631L4.82459 11.0981L4.28711 11.6482Z" fill="url(#paint15_linear_291_28130)"/>
<path d="M15.4917 39.4591C15.431 39.5364 15.4007 39.6654 15.3855 39.833C15.3703 40.0006 15.3768 40.1531 15.3899 40.2971C15.327 40.2283 15.2035 40.2068 15.1363 40.2563C15.1536 40.3229 15.1753 40.383 15.1861 40.4561C15.1926 40.5055 15.1926 40.5614 15.1948 40.6151C15.0778 40.6989 14.9434 40.8149 14.9261 41.0277C14.9239 41.062 14.9261 41.0943 14.9261 41.1265C14.8827 40.9911 14.8069 40.8515 14.77 40.7333C14.7353 40.628 14.6747 40.527 14.6161 40.4733C14.5988 40.4561 14.5771 40.4518 14.5555 40.4389C14.5424 40.4733 14.5316 40.512 14.5186 40.542C14.5143 40.5571 14.5099 40.5743 14.5034 40.6065C14.4644 40.5657 14.4319 40.5292 14.3907 40.4991C14.3604 40.4776 14.3257 40.469 14.2889 40.4604C14.213 40.4432 14.2 40.4604 14.2 40.5721C14.2 40.6087 14.2 40.6473 14.1979 40.6946C14.031 40.6323 13.9399 40.7655 13.9421 40.7677C13.9768 40.7999 14.0093 40.8192 14.0158 40.8708C14.0245 40.9181 14.005 40.9933 13.9811 41.0577C13.9334 41.1845 13.966 41.4015 14.057 41.4875C14.1242 41.5477 14.2455 41.5369 14.3322 41.4531C14.4319 41.3607 14.4644 41.0749 14.4081 40.9868C14.3734 40.9331 14.3496 40.9331 14.2845 40.9782C14.3019 41.0148 14.3366 41.0513 14.3322 41.0943C14.3279 41.1415 14.2932 41.2082 14.2607 41.2447C14.2152 41.2941 14.161 41.2984 14.1242 41.2576C14.0591 41.1845 14.057 41.0599 14.1177 40.9396C14.135 40.9073 14.1783 40.8472 14.2 40.83C14.2932 40.7612 14.4059 40.7419 14.4753 40.7913C14.5511 40.845 14.5988 40.9331 14.6075 41.062C14.6248 41.2877 14.5078 41.6379 14.5186 41.8614C14.5273 42.0676 14.6747 42.1493 14.848 42.1837C14.9239 42.1987 15.1211 42.2202 15.1623 42.2352C15.3682 42.3083 15.5481 42.2976 15.6564 42.1085C15.7691 41.9151 15.8298 41.5498 15.9512 41.3586C16.0205 41.249 16.1007 41.1931 16.1939 41.1781C16.2784 41.1673 16.3673 41.2318 16.4215 41.3371C16.4345 41.3629 16.4431 41.4338 16.4431 41.4724C16.441 41.6057 16.3803 41.7174 16.2893 41.7496C16.2351 41.769 16.1896 41.7432 16.1722 41.6766C16.1592 41.6293 16.1614 41.5562 16.1787 41.509C16.1939 41.4703 16.2394 41.4553 16.2719 41.4295C16.2351 41.3586 16.2134 41.3478 16.1571 41.3801C16.066 41.4338 15.9707 41.6959 16.0162 41.8227C16.053 41.9366 16.1571 42.001 16.2438 41.9774C16.3673 41.943 16.4843 41.7711 16.5038 41.6336C16.5125 41.567 16.532 41.4918 16.558 41.4531C16.5884 41.4101 16.6252 41.408 16.6729 41.3951C16.6729 41.3951 16.6794 41.3865 16.6859 41.3758C16.6599 41.2318 16.558 41.2554 16.48 41.2146C16.4995 41.1695 16.5168 41.1372 16.5342 41.1029C16.5862 41.004 16.5819 40.9825 16.506 40.9653C16.4713 40.9568 16.4345 40.946 16.3976 40.9525C16.35 40.9589 16.3023 40.9804 16.2481 40.9976C16.2568 40.9653 16.2611 40.9503 16.2654 40.9353C16.2698 40.8987 16.2784 40.8622 16.2828 40.8257C16.2828 40.8257 16.2654 40.8257 16.2568 40.8257C16.2416 40.8257 16.2264 40.8257 16.2112 40.83C16.1354 40.8515 16.0834 40.8987 15.9859 40.9546C15.8948 41.0083 15.7778 41.1415 15.6824 41.2769C15.6933 41.2296 15.7063 41.1845 15.7236 41.1437C15.7843 40.989 15.7735 40.8923 15.7128 40.8171L15.6434 40.7054C15.6499 40.6882 15.6586 40.6688 15.6651 40.6473C15.6976 40.5442 15.7474 40.4625 15.7865 40.3594C15.7691 40.2928 15.6521 40.2326 15.5719 40.2606C15.6152 40.1187 15.6456 39.9662 15.6478 39.7878C15.6478 39.6245 15.6087 39.5235 15.5632 39.4462C15.5567 39.4355 15.5481 39.4312 15.5372 39.4312C15.5199 39.4312 15.5025 39.444 15.4874 39.4591H15.4917ZM12.4554 41.3929C12.4294 41.3005 12.4012 41.206 12.3708 41.105C12.2473 41.1287 12.1736 41.2232 12.1194 41.3242C12.0674 41.4252 12.0392 41.5348 11.9981 41.6379C11.9482 41.5949 11.8984 41.5498 11.8464 41.5047C11.686 41.6916 11.66 41.8893 11.8052 42.1171C11.9244 42.304 12.0631 42.4759 12.1975 42.6457C12.3492 42.8412 12.5052 43.026 12.516 43.2795C12.5269 43.518 12.399 43.7243 12.1953 43.8941C12.0327 44.0294 11.855 44.0789 11.6296 44.081C11.6296 44.081 11.6036 44.1476 11.5993 44.1605C11.6188 44.2529 11.7878 44.2121 11.8724 44.1906C12.5095 44.0316 12.9192 43.5524 12.7284 43.0668C12.6548 42.8734 12.4077 42.5683 12.3123 42.3814C12.2321 42.2288 12.1628 42.0741 12.1953 41.8915C12.2386 41.6787 12.4467 41.4703 12.7133 41.5133C12.865 41.5369 12.9842 41.6615 12.9842 41.8119C12.9842 41.9086 12.8997 42.0376 12.8021 42.0784C12.7393 42.1042 12.6743 42.1128 12.6266 42.0676C12.5832 42.0247 12.5832 41.9688 12.6114 41.9108C12.6114 41.9108 12.6179 41.8914 12.6201 41.8786C12.5225 41.8872 12.399 42.0182 12.412 42.1214C12.438 42.3019 12.8476 42.4458 13.0362 42.3233C13.2096 42.2116 13.3028 41.9516 13.2399 41.7432C13.1792 41.5412 13.0882 41.4359 12.8932 41.3736C12.8715 41.365 12.8541 41.3564 12.839 41.3478C12.878 41.2511 12.9083 41.1673 12.943 41.0749C12.93 41.0749 12.9192 41.0749 12.9062 41.0749C12.6916 41.0749 12.5724 41.2082 12.451 41.3886L12.4554 41.3929ZM13.9096 42.1343C13.7861 42.1858 13.6365 42.3341 13.6084 42.4351C13.669 42.42 13.7254 42.3986 13.7774 42.39C13.8923 42.3749 13.9681 42.4308 13.9876 42.5361C14.005 42.6263 13.9378 42.7832 13.8468 42.8584C13.6994 42.983 13.5433 43.0926 13.3895 43.2086C13.2117 43.3397 13.1316 43.4944 13.1446 43.6706C13.1597 43.907 13.3613 44.0746 13.396 44.1068C13.086 44.4957 12.7198 44.8223 12.3448 45.1167C12.4467 45.1468 12.5507 45.1747 12.6526 45.1962C12.9885 44.9126 13.3179 44.6117 13.6344 44.2658C13.9031 44.384 14.2347 44.4098 14.4926 44.2121C14.6595 44.0853 14.7353 43.9284 14.8025 43.7673C14.8524 43.6448 14.8914 43.5202 14.9347 43.3934C14.9954 43.2237 15.1189 43.0861 15.249 43.0346C15.3682 42.9895 15.4397 43.0475 15.4505 43.2022C15.4505 43.2237 15.4505 43.2409 15.4549 43.2752C15.5372 43.1721 15.5676 43.0668 15.5892 42.9701C15.6283 42.7832 15.5849 42.6693 15.5069 42.5941C15.4137 42.5081 15.2555 42.5017 15.0951 42.622C15.0323 42.6671 14.9521 42.7552 14.8957 42.8433C14.8199 42.9594 14.757 43.0754 14.6985 43.1936C14.5078 43.4428 14.3539 43.604 14.2499 43.7007C14.3669 43.5288 14.4558 43.344 14.5316 43.1592C14.5988 43.0002 14.6551 42.8369 14.7072 42.6736C14.7137 42.6543 14.718 42.6328 14.7267 42.5941C14.6985 42.622 14.6812 42.6306 14.6703 42.6478C14.4471 42.9164 14.1957 43.1592 13.9464 43.3956C13.9204 43.4192 13.9031 43.445 13.8793 43.4708C13.8901 43.344 13.9833 43.1764 14.083 43.0346C14.1198 42.998 14.1545 42.9594 14.187 42.9207C14.2889 42.8004 14.3777 42.6564 14.4341 42.5146C14.5056 42.3298 14.4449 42.2138 14.3366 42.1407C14.2737 42.0977 14.2044 42.0741 14.1242 42.0741C14.0591 42.0741 13.9855 42.0913 13.9031 42.1257L13.9096 42.1343ZM11.3544 42.579C11.246 42.5726 11.0271 42.564 11.025 42.5726C11.634 42.8777 11.8138 43.2989 11.9135 43.8124C12.0457 43.7501 12.1736 43.3612 12.1519 43.1571C12.1216 42.8734 11.9634 42.6671 11.7012 42.4716C11.6946 42.5103 11.6881 42.5339 11.6816 42.5619C11.5386 42.4974 11.4497 42.3599 11.2699 42.3319C11.298 42.42 11.3262 42.4974 11.3522 42.579H11.3544ZM16.8463 43.3204C16.8463 43.3204 16.8203 43.3096 16.8029 43.301C16.6859 43.2344 16.2438 43.1377 16.0184 43.3784C15.8623 43.5503 15.6759 43.9779 15.962 44.1648C16.0314 44.2078 16.0834 44.2508 16.1939 44.197C16.2871 44.1498 16.3478 44.066 16.3911 43.9671C16.3998 43.9499 16.3998 43.9306 16.4063 43.9027C16.389 43.9156 16.3781 43.922 16.3695 43.9306C16.2784 44.0294 16.2243 44.0552 16.1787 44.0251C16.1332 43.9972 16.0985 43.8339 16.1506 43.7437C16.2849 43.503 16.5407 43.4213 16.6685 43.4987C16.7682 43.561 16.7921 43.6921 16.7119 43.8898C16.6187 44.1197 16.4605 44.3045 16.2698 44.3818C16.0964 44.4527 15.9252 44.4807 15.754 44.5022C15.6478 44.5151 15.5437 44.4893 15.4332 44.4656C15.2945 44.4334 15.1493 44.4033 14.9932 44.4463C14.5706 44.5666 14.0786 44.9512 13.7991 45.3359C13.8554 45.338 13.9096 45.3402 13.966 45.3402C14.0461 45.2456 14.1437 45.1532 14.2564 45.0673C14.5815 44.818 14.9022 44.6912 15.2056 44.7041C15.444 44.717 15.6564 44.7622 15.8797 44.7708C16.0162 44.7772 16.1484 44.7858 16.2893 44.76C16.4887 44.7235 16.6815 44.5752 16.8484 44.3002C16.7942 44.2894 16.7444 44.2787 16.6902 44.2658C16.9221 44.0595 17.1085 43.8167 17.1692 43.4966C17.0738 43.5632 16.985 43.6169 16.8918 43.6706C16.9525 43.5417 17.0131 43.4213 17.05 43.301C17.089 43.1742 17.0847 43.0733 17.0391 43.0045C16.9763 43.1098 16.9156 43.2065 16.8463 43.3161V43.3204ZM12.2191 44.2121C12.0869 44.3195 12.0891 44.4979 12.1996 44.6397C12.2365 44.687 12.2798 44.7299 12.308 44.7622C12.4229 44.6676 12.5225 44.5709 12.6331 44.4871C12.8801 44.298 12.9517 44.0789 12.9148 43.8532C12.9062 43.7974 12.891 43.7437 12.8758 43.6727C12.6526 43.8704 12.4272 44.0402 12.2191 44.2099V44.2121ZM11.1268 44.2808C11.0076 44.2765 10.8949 44.2701 10.7822 44.2572C10.7822 44.2572 10.9079 44.3883 10.9838 44.4441C10.9296 44.4893 10.8798 44.5301 10.8277 44.5709C11.3717 44.5494 11.777 44.7987 12.1823 45.0501C12.1303 44.7256 11.6686 44.2916 11.1073 44.2121C11.1138 44.2336 11.1203 44.2551 11.129 44.2808H11.1268ZM13.3006 44.9727C13.2139 45.0716 13.0925 45.164 12.9907 45.2521C13.1836 45.2843 13.3743 45.3058 13.565 45.3187C13.5867 45.3079 13.6084 45.2972 13.63 45.2822C13.7362 45.2069 13.8229 45.106 13.9096 45.0114C13.9725 44.9405 14.0223 44.861 14.083 44.7858C14.1393 44.7149 14.2044 44.6461 14.2694 44.5709C13.8771 44.5817 13.5498 44.6912 13.3028 44.9727H13.3006ZM15.3357 44.9577C14.9997 44.9856 14.6291 45.1382 14.2737 45.3294C14.835 45.3079 15.3725 45.2198 15.8471 45.0952C15.7388 45.0028 15.6044 44.9534 15.4267 44.9534C15.3985 44.9534 15.3682 44.9534 15.3357 44.9577Z" fill="url(#paint16_linear_291_28130)"/>
<path d="M12.0352 27.8369C12.0178 27.8391 12.0027 27.8498 12.0005 27.867V27.8734C12.007 27.9701 12.033 28.084 12.1305 28.2301C12.2367 28.3913 12.3538 28.5116 12.4773 28.6126C12.3928 28.6341 12.3212 28.7587 12.3473 28.8275C12.4426 28.8962 12.5358 28.9414 12.6247 29.0166C12.8132 29.1713 12.9107 29.0875 12.9259 29.0187C12.9302 28.9929 12.8999 28.95 12.8566 28.8962C12.8956 28.9328 12.9411 28.9564 12.9888 28.9564C13.0711 28.9371 13.1275 28.9005 13.0646 28.7716C13.0321 28.705 12.9714 28.6298 12.9389 28.5632C12.9042 28.4901 12.8891 28.4235 12.8631 28.3548C12.7742 28.3483 12.6767 28.4386 12.6637 28.5374C12.5878 28.3999 12.5033 28.2602 12.3906 28.1184C12.2801 27.9766 12.1717 27.8799 12.0742 27.8434C12.0742 27.8434 12.059 27.8391 12.0525 27.8391H12.0352V27.8369ZM13.6259 28.4472C13.6476 28.6062 13.8167 28.8705 13.9835 29.0724C13.912 28.9048 13.9402 28.8081 14.0052 28.7243C14.0312 28.6943 14.0247 28.5761 13.9315 28.4665C13.8969 28.4235 13.8145 28.3419 13.7625 28.3268C13.7451 28.3225 13.7278 28.3182 13.7148 28.3182C13.6433 28.3182 13.6173 28.3805 13.6259 28.445V28.4472ZM14.7529 28.5933C14.7139 28.6234 14.6446 28.6792 14.6056 28.8919C14.573 28.849 14.4842 28.7716 14.4408 28.7329C14.4257 28.7609 14.4018 28.7802 14.3932 28.8124C14.3628 28.9091 14.3802 29.0252 14.4473 29.1519C14.5644 29.3711 14.6922 29.5881 14.8223 29.803C15.0607 30.1984 15.2904 30.5787 15.1604 30.9268C15.1885 30.9268 15.1972 30.9268 15.2016 30.9268C15.2016 30.9268 15.2146 30.9117 15.2232 30.9075C15.4009 30.7828 15.5331 30.5744 15.4031 30.3251C15.2687 30.0651 14.9111 29.7407 14.7854 29.4742C14.7117 29.3217 14.7096 29.1949 14.7594 29.0853C14.8049 28.9865 14.9415 28.9371 15.0932 28.9543C15.13 28.9586 15.2167 29.0015 15.2557 29.0273C15.4009 29.1262 15.4833 29.2701 15.4551 29.3904C15.4399 29.4614 15.3771 29.4914 15.2926 29.4614C15.2297 29.4399 15.1495 29.3861 15.1127 29.3367C15.0802 29.2938 15.0975 29.2314 15.091 29.1777C14.987 29.167 14.9588 29.182 14.9567 29.2637C14.9501 29.4012 15.117 29.5967 15.2904 29.6375C15.44 29.6784 15.5895 29.6118 15.6242 29.5022C15.674 29.3475 15.6198 29.1885 15.4833 29.0724C15.4161 29.0166 15.3468 28.9435 15.3229 28.8833C15.2991 28.8232 15.3229 28.7802 15.3403 28.72C15.3403 28.72 15.3359 28.7071 15.3294 28.6921C15.1495 28.6169 15.104 28.7415 15.0065 28.7974C14.974 28.7437 14.948 28.7029 14.922 28.6599C14.8786 28.5847 14.8548 28.5524 14.8223 28.5524C14.8028 28.5524 14.7789 28.5653 14.7486 28.5911L14.7529 28.5933ZM13.3507 28.8146C13.3204 28.8425 13.3009 28.9005 13.3334 28.9564C13.394 29.0703 13.5154 29.182 13.6498 29.2465C13.9077 29.369 14.1396 29.5537 14.313 29.7923C14.3433 29.8352 14.3715 29.8761 14.3997 29.919C14.2501 29.7729 14.0789 29.6397 13.9207 29.5022C13.7516 29.3582 13.5891 29.2916 13.4504 29.2981C13.4092 29.3002 13.381 29.3367 13.3832 29.3776C13.3897 29.5194 13.4851 29.6633 13.6303 29.8352C13.7516 29.9813 13.873 30.1489 14.0052 30.308C13.977 30.2843 13.9489 30.2628 13.9207 30.2392C13.717 30.0759 13.5414 29.8804 13.3984 29.6547C13.3269 29.5409 13.0148 29.1605 12.8804 29.3518C12.8306 29.4205 12.9064 29.558 13.0516 29.6676C13.1795 29.7643 13.3117 29.846 13.4417 29.9405C13.4439 30.0974 13.5046 30.1962 13.6931 30.3316C13.8015 30.4089 13.9099 30.467 14.0182 30.54C14.0507 30.5615 14.0962 30.6045 14.1092 30.6346C14.1634 30.7871 14.2653 30.8666 14.3758 30.916C14.5015 30.9719 14.6142 30.9741 14.6966 30.9719C14.7703 30.9698 14.8461 30.9289 14.8981 30.8602C14.974 30.7592 15.0195 30.497 14.9068 30.2886C14.87 30.2199 14.7984 30.1404 14.7334 30.0866C14.6814 30.0415 14.6489 30.0114 14.6186 29.947C14.5579 29.8159 14.4799 29.6848 14.391 29.558C14.2631 29.3797 14.1504 29.3238 14.0247 29.3367C13.9164 29.2035 13.8167 29.0789 13.704 28.965C13.5999 28.8619 13.4786 28.7995 13.4027 28.7995C13.381 28.7995 13.3637 28.8038 13.3507 28.8167V28.8146ZM12.473 29.9448C12.473 30.1253 12.7439 30.1511 12.811 30.1253C12.8934 30.0931 12.9454 30.0308 13.0278 30.0028C13.0841 29.9856 13.1686 30.0071 13.2683 30.0114C13.0928 29.9018 12.8241 29.7708 12.6507 29.7708C12.5466 29.7708 12.473 29.818 12.4751 29.9448H12.473ZM12.8631 30.2714C12.8306 30.2779 12.8089 30.2994 12.7807 30.3123C12.8197 30.3574 12.8782 30.4476 12.9302 30.4863C12.8566 30.5013 12.7915 30.5078 12.733 30.5314C12.6875 30.5486 12.6528 30.5808 12.6182 30.6131C12.5445 30.6818 12.5553 30.7098 12.6767 30.7871C12.72 30.8151 12.7569 30.843 12.811 30.8774C12.6225 31.0106 12.7049 31.204 12.7114 31.204C12.772 31.1889 12.8154 31.1696 12.8761 31.1975C12.9324 31.2255 13.0039 31.2985 13.056 31.3673C13.1665 31.5112 13.3204 31.5736 13.4807 31.5349C13.5956 31.5069 13.6693 31.3673 13.6368 31.2147C13.6064 31.0428 13.4201 30.8645 13.2813 30.8623C13.199 30.8623 13.1795 30.886 13.1838 30.9891C13.238 30.9977 13.3009 30.9848 13.342 31.0192C13.3919 31.0579 13.4396 31.1417 13.4569 31.204C13.4807 31.2899 13.4461 31.3479 13.3745 31.3587C13.2488 31.3802 13.1101 31.2899 13.0213 31.1395C12.9974 31.0965 12.9606 31.0084 12.9584 30.9719C12.9498 30.8215 13.0083 30.6904 13.1101 30.6518C13.225 30.6088 13.3507 30.6217 13.5002 30.7012C13.7603 30.843 14.0637 31.219 14.3173 31.3673C14.5622 31.5112 14.7811 31.3952 14.9155 31.2255C14.9155 31.2255 14.9306 31.2147 14.935 31.2061C14.935 31.2061 14.935 31.1911 14.9393 31.1653C14.5817 31.2727 14.2133 31.0213 13.8297 30.7592C13.6238 30.6174 13.4136 30.4756 13.2012 30.3466C13.108 30.2908 13.0213 30.2607 12.9389 30.2607C12.9129 30.2607 12.8869 30.265 12.8609 30.2693L12.8631 30.2714ZM15.8647 30.4541C15.674 30.5529 15.5895 30.8194 15.765 31.1589C15.8084 31.2405 15.8604 31.3265 15.9211 31.4017C16.1552 31.696 16.4174 31.9324 16.6775 32.1752C16.8357 32.3256 16.983 32.4889 17.1326 32.6522C17.5184 33.0777 17.4468 33.5826 17.4577 33.6063C17.6289 33.3291 17.7806 33.0433 17.6376 32.6007C17.5465 32.3235 17.358 32.1365 17.1629 31.9689C17.0156 31.84 16.8595 31.7304 16.7056 31.6122C16.4954 31.4511 16.3632 31.2147 16.3545 31.0127C16.3459 30.8279 16.4629 30.7592 16.684 30.8194C16.7121 30.8279 16.7295 30.8322 16.7793 30.8451C16.6991 30.6969 16.5518 30.5959 16.4261 30.5185C16.2895 30.4369 16.1725 30.4046 16.0706 30.4046C15.9926 30.4046 15.9254 30.424 15.8647 30.4541ZM15.5461 31.6165C15.8149 32.0463 16.0338 32.504 16.2483 32.9595C16.3567 33.1851 16.5106 33.3914 16.6515 33.5891C16.7035 33.6621 16.814 33.6815 16.8964 33.6965C16.9549 33.7073 16.9939 33.7244 17.0307 33.7932C17.5075 34.6613 17.8846 35.5681 18.1837 36.4426C18.1924 36.4727 18.1989 36.5178 18.1881 36.5436C18.0558 36.8057 18.136 36.9927 18.2726 37.1624C18.3809 37.2978 18.5803 37.575 18.6584 37.5685C18.6735 37.4052 18.693 37.2441 18.6909 37.0829C18.6909 36.9389 18.6844 36.7864 18.641 36.651C18.615 36.5694 18.524 36.5199 18.4633 36.4555C18.42 36.4104 18.3549 36.3738 18.3354 36.3158C18.0168 35.4606 17.6376 34.571 17.1564 33.7244C17.1088 33.6363 17.0979 33.5762 17.1283 33.4924C17.1781 33.3441 17.1304 33.1787 17.0437 33.024C16.8162 32.6307 16.5106 32.3256 16.192 32.0484C16.0013 31.8808 15.8019 31.7304 15.5982 31.5779C15.5722 31.5585 15.5461 31.5456 15.4985 31.5155C15.5223 31.5671 15.5288 31.595 15.544 31.6187L15.5461 31.6165ZM14.6792 31.8293C14.5145 31.9496 14.4343 32.1322 14.4538 32.4073C14.469 32.6007 14.6034 32.8735 14.7313 32.9595C14.7378 32.8692 14.7356 32.7833 14.7508 32.7081C14.7854 32.5469 14.8981 32.4674 15.0542 32.4889C15.1885 32.5104 15.3749 32.6737 15.4378 32.8349C15.5418 33.0949 15.6242 33.3592 15.7109 33.6213C15.8106 33.9243 15.9861 34.1134 16.2397 34.1757C16.4456 34.2272 16.645 34.1886 16.8465 34.0983C16.762 34.0467 16.6948 34.0059 16.6255 33.9651C16.4066 33.8383 16.2635 33.6192 16.1508 33.3592C16.0121 33.0347 15.8821 32.7038 15.6957 32.403C15.5765 32.2053 15.4161 32.0162 15.2471 31.8744C15.1322 31.7798 15.026 31.7412 14.9285 31.7412C14.8374 31.7412 14.7529 31.7755 14.6814 31.8293H14.6792ZM13.0018 33.9135C12.8674 33.892 12.7287 33.8706 12.5791 33.8469C12.538 34.0145 12.6138 34.1649 12.7114 34.2939C12.8089 34.4185 12.9346 34.5195 13.0451 34.6312C12.9584 34.6699 12.8717 34.7064 12.785 34.7429C12.9302 35.0545 13.1686 35.2071 13.5501 35.1641C13.8622 35.1276 14.1656 35.0524 14.4668 34.9857C14.8093 34.9105 15.1409 34.8267 15.4746 34.9664C15.7889 35.0953 15.9796 35.3811 16.0771 35.7378C16.1552 36.0214 16.1118 36.2793 15.9796 36.5608C15.9796 36.5608 16.0403 36.6295 16.0641 36.6446C16.1031 36.5307 16.2223 36.3523 16.2462 36.2342C16.4217 35.3403 15.8171 34.7172 15.0758 34.6656C14.7833 34.6419 14.4885 34.6763 14.1894 34.6849C13.9445 34.6935 13.7018 34.6892 13.4916 34.5388C13.2402 34.3562 13.0971 33.9694 13.3117 33.6621C13.4352 33.4859 13.6671 33.4129 13.8578 33.501C13.9835 33.5611 14.1006 33.7416 14.0962 33.8899C14.0941 33.9866 14.0659 34.0725 13.9792 34.1048C13.8947 34.1348 13.8275 34.1048 13.7668 34.0296C13.7668 34.0296 13.7451 34.0102 13.7321 34.0016C13.6823 34.1284 13.7798 34.3605 13.9229 34.4056C14.1699 34.4829 14.4192 34.1671 14.3737 33.8577C14.3346 33.574 14.2003 33.3377 13.9489 33.2259C13.6736 33.1056 13.4396 33.1486 13.2445 33.3506C13.2207 33.372 13.199 33.3892 13.1795 33.4064C13.0755 33.299 12.9866 33.2087 12.8891 33.1121C12.7265 33.4 12.8284 33.6428 12.9996 33.9178L13.0018 33.9135ZM14.3997 34.3841C14.6814 34.3755 14.974 34.0188 14.8396 33.7008C14.7443 33.4644 14.456 33.2689 14.2328 33.1314C14.5795 33.5246 14.7204 33.9522 14.3997 34.3841ZM17.9887 34.8783C18.0884 35.0438 18.1534 35.235 18.2271 35.4133C18.4958 35.25 18.6865 34.9277 18.576 34.5775C18.5196 34.3991 18.4221 34.2337 18.3311 34.0704C18.2617 33.9479 18.1729 33.8426 18.0992 33.7266C18.0255 33.6127 17.9605 33.4945 17.8868 33.372C17.7156 33.9092 17.7113 34.4056 17.9887 34.8762V34.8783ZM16.9505 35.5487C17.0372 35.7808 17.2908 35.8624 17.54 35.7808C17.6246 35.7528 17.7026 35.7142 17.7611 35.6927C17.6831 35.4907 17.5964 35.3124 17.5314 35.1211C17.3862 34.6957 17.1153 34.4937 16.7815 34.4335C16.6991 34.4206 16.6146 34.4142 16.5106 34.4013C16.6818 34.7988 16.8097 35.1834 16.9505 35.5487ZM13.9835 35.5122C14.0356 35.5423 14.0637 35.5573 14.1006 35.5809C13.9445 35.7442 13.7105 35.798 13.5826 36.03C13.7213 36.0322 13.8427 36.0343 13.9662 36.0343C13.9077 36.1783 13.7928 36.4705 13.8015 36.4791C14.5167 35.7958 15.1885 35.7507 15.9536 35.8646C15.9276 35.6561 15.4465 35.293 15.1517 35.2285C15.0585 35.2071 14.9653 35.1963 14.8765 35.1963C14.573 35.1963 14.2891 35.3124 13.9814 35.5143L13.9835 35.5122ZM18.511 35.7335C18.7017 35.6583 18.8924 35.5895 19.081 35.5509C19.068 35.5186 19.0571 35.4864 19.0441 35.4542C19.0116 35.3747 18.9769 35.2909 18.9423 35.2049C18.7559 35.3553 18.5977 35.5466 18.511 35.7314V35.7335ZM18.5478 36.2019C18.5478 36.2019 18.5283 36.2213 18.511 36.2492C18.7992 36.3008 18.9054 36.55 18.9596 36.8422C19.1265 36.8014 19.2002 36.6596 19.2739 36.5307C19.3367 36.5865 19.3952 36.6553 19.4624 36.7026C19.4039 36.4942 19.3389 36.2793 19.2652 36.0601C19.2262 36.0558 19.1872 36.0537 19.1503 36.0537C18.9466 36.0537 18.7472 36.116 18.5478 36.2019ZM16.0468 37.2011C16.0815 37.2011 16.1161 37.2011 16.1552 37.2032C16.0923 37.3622 16.0294 37.5127 15.9579 37.6609C15.9688 37.6674 16.2028 37.5535 16.3155 37.4761C16.3524 37.5728 16.3849 37.6609 16.4196 37.749C16.6493 36.9991 17.1889 36.5715 17.7286 36.1396C17.6896 36.1332 17.6462 36.1289 17.6029 36.1289C17.1174 36.1289 16.3957 36.5371 16.049 37.1989L16.0468 37.2011ZM17.8066 36.6918C17.6202 36.8508 17.4447 37.027 17.3515 37.2698C17.2583 37.5019 17.2886 37.6867 17.4382 37.8457C17.6267 37.676 17.7654 37.5041 17.7113 37.2892C17.8435 37.2827 17.967 37.2741 18.1274 37.2613C18.0103 37.0056 17.9366 36.7778 18.097 36.5049C18.097 36.5049 18.0797 36.4899 18.071 36.4834C17.9865 36.5543 17.8955 36.6188 17.8088 36.6897L17.8066 36.6918ZM18.9163 37.0206C19.0138 37.1839 19.081 37.3279 19.1785 37.446C19.2457 37.5341 19.3562 37.5922 19.4949 37.5341C19.5426 37.5148 19.6076 37.4654 19.6401 37.416C19.6271 37.3536 19.612 37.2892 19.5968 37.2247C19.4993 37.2355 19.4256 37.1796 19.3649 37.1345C19.263 37.0614 19.1525 37.0141 19.0008 37.0141C18.9748 37.0141 18.9466 37.0141 18.9163 37.0184V37.0206ZM17.9258 37.792C17.8868 37.9188 17.8326 38.0219 17.6636 38.0584C17.7308 38.1573 17.8348 38.1745 17.9562 38.1616C18.0689 38.1487 18.1469 38.0692 18.1967 37.9811C18.2704 37.85 18.2791 37.691 18.2617 37.5535C18.2531 37.4783 18.2379 37.3902 18.2119 37.3408C18.0558 37.4826 17.9778 37.633 17.9258 37.7898V37.792ZM19.1005 38.0047C19.2327 38.0799 19.4277 37.9918 19.5339 37.7748C19.3562 37.8242 19.2934 37.7125 19.2023 37.6222C19.1221 37.5427 19.0203 37.4912 18.9163 37.4203C18.8642 37.6416 18.9553 37.9252 19.0983 38.0047H19.1005ZM18.3528 37.9682C18.3571 38.0885 18.3593 38.196 18.2357 38.3055C18.3528 38.3399 18.4568 38.3098 18.5565 38.2303C18.6475 38.1616 18.6757 38.0735 18.6714 37.9768C18.6627 37.807 18.537 37.605 18.3766 37.5298C18.3723 37.691 18.3484 37.835 18.3549 37.9682H18.3528ZM18.9011 38.4688C18.9163 38.4925 18.9358 38.5054 18.9618 38.5075H18.9791C19.0008 38.5075 19.0246 38.4989 19.0528 38.4839C19.1352 38.4431 19.1612 38.3979 19.1503 38.3335C19.1178 38.1573 18.9856 38.0477 18.8426 37.9403C18.8144 38.1422 18.8079 38.3227 18.9033 38.4667" fill="url(#paint17_linear_291_28130)"/>
<path d="M6.85735 26.4014L7.10009 26.2639L6.4369 25.1187L6.19417 25.2562L6.44991 25.6988L5.24707 26.3843L5.39878 26.6464L6.60378 25.961L6.85952 26.4036L6.85735 26.4014ZM7.94316 27.7186L6.75116 27.9056L7.51187 26.973L7.27564 26.5669L5.83007 27.3899L5.98178 27.652L7.08925 27.0224L7.09359 27.0289L6.22018 28.0624L6.34371 28.2773L7.68308 28.0517L7.68742 28.056L6.58211 28.6855L6.73382 28.9477L8.18156 28.1247L7.94749 27.7165L7.94316 27.7186Z" fill="#BCBAB7"/>
<g style="mix-blend-mode:screen" opacity="0.3">
<path d="M19.0633 20.2816C19.2085 20.0646 19.3386 19.8626 19.4578 19.68C19.5987 19.4522 19.7309 19.2202 19.8566 18.9838C19.9129 18.8764 19.9693 18.7689 20.0234 18.6593C21.5644 15.5867 21.9957 11.9983 21.974 9.76789C20.0429 4.20697 14.4145 6.68661 12.6114 3.2207C12.581 3.2207 11.2308 3.30021 11.2026 3.3045C11.2915 3.41624 11.3825 3.52582 11.4779 3.63541C12.1931 4.44548 13.8662 6.08711 15.6672 6.50611C17.4682 6.92512 18.9788 7.18511 20.5002 9.43054C22.0195 11.676 20.4027 14.841 18.981 17.9503C18.4132 19.1901 18.3568 20.4363 18.2745 21.6654C18.5063 21.3474 18.5562 20.98 18.8314 20.6147C18.9116 20.5073 18.9896 20.3977 19.0655 20.2859" fill="#CCC9C6"/>
</g>
<g style="mix-blend-mode:multiply" opacity="0.2">
<path d="M15.7928 17.8729C16.2978 15.389 17.5548 13.2703 15.9576 9.81732C14.642 6.97455 12.3772 5.95605 9.99756 6.49323C11.5537 6.34068 14.1956 6.73174 15.2034 9.54873C16.2696 12.5247 13.994 18.3263 11.9568 22.5292C11.9113 22.6281 11.8592 22.7269 11.8116 22.8257C12.802 24.5318 13.6126 25.9973 14.5813 27.7313C14.5813 27.7313 15.886 25.6449 16.4279 24.6994C15.316 22.1489 15.4786 19.4222 15.7928 17.8751" fill="#ACA9A6"/>
</g>
<path d="M66.2488 31.668C65.719 31.668 65.4939 30.9629 65.4939 29.024C65.4939 28.0182 65.9856 27.7659 67.3847 27.7659C67.7517 27.7659 68.0461 27.7659 68.3266 27.7728C67.8799 29.1449 67.2808 31.668 66.2488 31.668ZM63.4091 30.3443C63.4091 30.8593 63.4576 31.2947 63.5477 31.668H56.1438C55.1603 31.668 54.53 31.4399 54.53 30.5344V28.0182H56.8606C57.0511 27.4514 57.1757 26.9329 57.2381 26.3834H54.5266C54.5369 25.6057 54.5958 24.911 54.6512 24.1161C53.7682 24.4306 53.0756 24.797 52.5076 25.426V26.3834H51.3094C51.209 27.0643 51.209 27.5793 51.1848 28.0182H52.5076V30.6622C52.5076 32.5148 53.6296 33.3063 55.1707 33.3063H65.2376C66.4704 33.3063 67.4193 32.2971 68.3301 30.0125V33.3063H70.349V26.3834C69.4417 26.3074 68.6071 26.2555 67.6998 26.2555C65.203 26.2555 63.4091 27.2889 63.4091 30.3477V30.3443ZM74.0059 29.5804V28.8996C74.0059 28.0182 73.9436 27.2613 73.8154 26.3834H71.8589C71.9212 27.2647 71.9835 28.0182 71.9835 28.8996V33.3063H74.0024C74.0024 30.8385 74.7955 28.0286 76.9044 28.3327C76.9044 27.8903 76.8421 26.8845 76.7174 26.2555C75.1799 26.3903 74.4249 27.7417 74.0059 29.5804ZM46.2015 31.6715C45.6717 31.6715 45.4431 30.9664 45.4431 29.0274C45.4431 28.0217 45.9349 27.7693 47.3339 27.7693C47.701 27.7693 47.9953 27.7694 48.2793 27.7763C47.8326 29.1484 47.2335 31.6715 46.198 31.6715H46.2015ZM43.3619 30.3477C43.3619 32.4388 44.1168 33.4342 45.128 33.4342C46.3643 33.4342 47.3512 32.342 48.2828 30.0125V33.3097H50.3017V26.3868C49.3944 26.3108 48.5598 26.259 47.6525 26.259C45.1557 26.259 43.3653 27.2924 43.3653 30.3512L43.3619 30.3477ZM109.141 27.1403C109.141 25.4156 107.943 24.3718 105.8 24.3718C104.615 24.3718 103.743 24.6241 103.213 24.8765C102.912 25.305 102.773 25.7958 102.583 26.5735C103.389 26.259 104.172 26.0067 105.356 26.0067C106.302 26.0067 107.06 26.411 107.06 27.517C107.06 28.7129 106.316 29.5804 102.264 31.9238C102.264 32.1761 102.278 32.6807 102.392 33.3097H109.076C109.266 32.7429 109.391 32.2383 109.453 31.6715H103.763C106.607 30.7003 109.138 29.6876 109.138 27.1369L109.141 27.1403ZM38.6072 31.3742L38.5033 31.3189C37.2912 30.6761 35.6636 29.6945 35.6636 27.9076C35.6636 26.2693 36.7233 25.502 37.9977 25.502C39.4106 25.502 40.2694 26.4974 40.2694 28.2359C40.2694 29.4318 39.608 30.4894 38.6072 31.3742ZM42.4788 33.4342L39.1543 31.6646C41.0347 30.9837 42.413 29.6357 42.413 27.7279C42.413 25.1599 40.4806 23.8638 37.9977 23.8638C35.7156 23.8638 33.52 25.3258 33.52 28.1461C33.52 30.524 35.3381 31.948 37.3293 32.9918L43.7393 36.3271C43.7393 34.8547 43.5627 34.0114 42.4788 33.4307V33.4342ZM89.7106 32.6738C89.1427 32.6738 87.3765 31.5263 87.3765 28.4572C87.3765 26.9433 88.2596 26.0032 89.7106 26.0032C91.1616 26.0032 92.0447 26.9468 92.0447 28.4572C92.0447 31.5263 90.2785 32.6738 89.7106 32.6738ZM89.7106 24.3649C87.1895 24.3649 85.2953 25.8753 85.2953 28.3327C85.2953 31.5436 88.3877 33.4307 89.7106 33.4307C91.0335 33.4307 94.1259 31.5401 94.1259 28.3327C94.1259 25.8788 92.2351 24.3649 89.7106 24.3649ZM89.7383 27.797C89.2985 28.1115 88.9176 28.4779 88.5851 28.8961C88.9176 29.3143 89.2985 29.6807 89.7383 29.9952C90.1781 29.6807 90.5556 29.3143 90.8949 28.8961C90.559 28.4779 90.1816 28.1081 89.7383 27.797ZM101.319 27.1334C101.319 25.4087 100.12 24.3649 97.9733 24.3649C96.789 24.3649 95.9163 24.6172 95.3864 24.8695C95.0852 25.2981 94.9466 25.7889 94.7562 26.5666C95.5631 26.2521 96.3457 25.9997 97.5335 25.9997C98.4789 25.9997 99.2373 26.4041 99.2373 27.5101C99.2373 28.706 98.4928 29.5735 94.4445 31.9169C94.4445 32.1692 94.4584 32.6738 94.5692 33.3028H101.256C101.443 32.736 101.571 32.2314 101.634 31.6646H95.944C98.7871 30.6934 101.319 29.6807 101.319 27.1299V27.1334ZM84.2875 27.1299C84.2875 25.4053 83.0893 24.3615 80.9458 24.3615C79.7579 24.3615 78.8887 24.6138 78.3589 24.8661C78.0542 25.2947 77.9156 25.7855 77.7286 26.5631C78.5355 26.2486 79.3181 25.9963 80.5025 25.9963C81.4479 25.9963 82.2063 26.4007 82.2063 27.5067C82.2063 28.7025 81.4617 29.5701 77.4135 31.9134C77.4135 32.1657 77.4274 32.6703 77.5416 33.2994H84.2287C84.4191 32.7325 84.5438 32.2279 84.6061 31.6611H78.9164C81.7596 30.6899 84.291 29.6772 84.291 27.1265" fill="#9A1032"/>
<path d="M101.505 21.3997C101.218 21.4723 100.906 21.5379 100.563 21.6036C100.221 21.6693 99.7947 21.7004 99.2857 21.7004C98.7766 21.7004 98.278 21.6347 97.7689 21.4965C97.2564 21.3617 96.7959 21.1439 96.3873 20.8432C95.9752 20.5425 95.6393 20.1485 95.3796 19.6612C95.1164 19.1738 94.9883 18.5759 94.9883 17.8674C94.9883 17.2176 95.0956 16.6508 95.3103 16.16C95.525 15.6726 95.8228 15.2648 96.2037 14.9399C96.5847 14.615 97.0417 14.3731 97.5646 14.2141C98.091 14.0517 98.6589 13.9722 99.2753 13.9722C99.6631 13.9722 100.037 14.0102 100.401 14.0828C100.764 14.1553 101.131 14.2487 101.495 14.3558L101.336 15.9733C101.014 15.7936 100.695 15.6623 100.376 15.5759C100.058 15.4895 99.7255 15.448 99.3861 15.448C99.0467 15.448 98.7074 15.5067 98.42 15.6312C98.1325 15.7521 97.8901 15.918 97.6858 16.1323C97.4815 16.3466 97.3257 16.6024 97.2149 16.8996C97.1041 17.1934 97.0487 17.5183 97.0487 17.8674C97.0487 18.2165 97.111 18.5586 97.2357 18.8524C97.3603 19.1427 97.53 19.3916 97.7482 19.5955C97.9663 19.7994 98.2295 19.955 98.5342 20.0621C98.8424 20.1693 99.1783 20.2211 99.5419 20.2211C99.8709 20.2211 100.196 20.1831 100.518 20.107C100.84 20.0345 101.135 19.9411 101.408 19.834L101.505 21.3962V21.3997Z" fill="#9A1032"/>
<path d="M108.687 18.7349C108.687 19.2499 108.608 19.6888 108.452 20.0621C108.296 20.4319 108.071 20.7396 107.784 20.9815C107.493 21.2234 107.147 21.4032 106.745 21.5207C106.34 21.6382 105.896 21.6969 105.408 21.6969C104.92 21.6969 104.477 21.6382 104.075 21.5207C103.673 21.4032 103.327 21.2234 103.036 20.9815C102.745 20.7396 102.524 20.4319 102.368 20.0621C102.212 19.6888 102.132 19.2499 102.132 18.7349V14.1035H104.127V18.4031C104.127 18.652 104.148 18.887 104.186 19.1047C104.224 19.3225 104.293 19.516 104.39 19.6819C104.487 19.8478 104.619 19.9826 104.781 20.0759C104.944 20.1727 105.155 20.2211 105.412 20.2211C105.668 20.2211 105.879 20.1727 106.045 20.0759C106.212 19.9792 106.34 19.8478 106.437 19.6819C106.534 19.5126 106.599 19.3225 106.641 19.1047C106.679 18.887 106.7 18.6554 106.7 18.4031V14.1035H108.694V18.7349H108.687Z" fill="#9A1032"/>
<path d="M111.676 17.5494H112.189C112.362 17.5494 112.521 17.5321 112.67 17.501C112.819 17.4665 112.951 17.4112 113.061 17.3282C113.172 17.2453 113.259 17.1381 113.325 17.0068C113.387 16.8754 113.422 16.713 113.422 16.5194C113.422 16.3259 113.39 16.1669 113.325 16.039C113.259 15.9111 113.172 15.8075 113.061 15.728C112.951 15.6485 112.819 15.5932 112.67 15.5621C112.521 15.5275 112.358 15.5137 112.189 15.5137H111.676V17.546V17.5494ZM109.682 14.1035H112.061C113.21 14.1035 114.059 14.3005 114.602 14.698C115.146 15.0955 115.416 15.7141 115.416 16.554C115.416 17.3109 115.156 17.902 114.634 18.3236C114.111 18.7487 113.383 18.9596 112.445 18.9596H111.673V21.5691H109.678V14.1035H109.682Z" fill="#9A1032"/>
<path d="M53.415 14.1035H55.4513L56.4175 19.8375H56.4382L57.446 14.1035H59.974L61.0232 19.8375H61.044L62.0206 14.1035H63.9599L62.2872 21.5691H59.7281L58.6684 15.8351H58.6476L57.6607 21.5691H55.0773L53.415 14.1035Z" fill="#9A1032"/>
<path d="M66.0961 17.8362C66.0961 18.1438 66.1272 18.4411 66.193 18.7314C66.2554 19.0183 66.3558 19.274 66.4908 19.4952C66.6259 19.7164 66.8025 19.8927 67.0172 20.0241C67.2319 20.1554 67.4881 20.2211 67.7894 20.2211C68.0907 20.2211 68.3469 20.1554 68.5616 20.0241C68.7763 19.8927 68.9495 19.7164 69.0845 19.4952C69.2196 19.274 69.32 19.0183 69.3858 18.7314C69.4481 18.4411 69.4827 18.1438 69.4827 17.8362C69.4827 17.5286 69.4516 17.2107 69.3858 16.9238C69.32 16.6335 69.2196 16.3811 69.0845 16.1634C68.9495 15.9457 68.7763 15.7728 68.5616 15.645C68.3469 15.5171 68.0872 15.4549 67.7894 15.4549C67.4916 15.4549 67.2319 15.5171 67.0172 15.645C66.8025 15.7728 66.6259 15.9457 66.4908 16.1634C66.3558 16.3811 66.2554 16.6369 66.193 16.9238C66.1272 17.2107 66.0961 17.5183 66.0961 17.8362ZM64.0357 17.8362C64.0357 17.2383 64.1153 16.6991 64.2781 16.2222C64.4374 15.7452 64.6763 15.3408 64.9914 15.009C65.3066 14.6772 65.6979 14.4214 66.1653 14.2452C66.6328 14.0654 67.1765 13.9756 67.7894 13.9756C68.4023 13.9756 68.946 14.0654 69.4135 14.2452C69.881 14.4214 70.2723 14.6772 70.5874 15.009C70.9025 15.3408 71.138 15.7452 71.3007 16.2222C71.46 16.6991 71.5397 17.2383 71.5397 17.8362C71.5397 18.4342 71.46 18.963 71.3007 19.4399C71.138 19.9169 70.899 20.3247 70.5805 20.66C70.2619 20.9953 69.8706 21.251 69.3996 21.4308C68.9322 21.6105 68.3919 21.7003 67.786 21.7003C67.18 21.7003 66.6328 21.6105 66.1653 21.4308C65.7013 21.2545 65.31 20.9953 64.9914 20.66C64.6729 20.3247 64.4339 19.9204 64.2746 19.4399C64.1153 18.963 64.0322 18.4273 64.0322 17.8362" fill="#9A1032"/>
<path d="M74.2827 17.2072H74.8056C74.9649 17.2072 75.1311 17.2003 75.3042 17.19C75.4808 17.1796 75.6367 17.145 75.7752 17.0897C75.9137 17.031 76.0314 16.948 76.1215 16.834C76.2149 16.7199 76.26 16.5575 76.26 16.3397C76.26 16.1704 76.2184 16.0287 76.1353 15.9181C76.0522 15.8075 75.9483 15.7245 75.8133 15.6658C75.6782 15.607 75.5258 15.569 75.3527 15.5482C75.1796 15.5275 74.996 15.5171 74.8021 15.5171H74.2792V17.2072H74.2827ZM72.2881 14.1035H75.8444C76.1734 14.1035 76.4851 14.1415 76.7759 14.2141C77.0703 14.2902 77.3265 14.4077 77.5481 14.5632C77.7698 14.7187 77.9429 14.9157 78.0676 15.1508C78.1922 15.3858 78.2546 15.6657 78.2546 15.9872C78.2546 16.4849 78.1368 16.8962 77.9014 17.2176C77.6659 17.539 77.3057 17.7568 76.8209 17.8709V17.8916C76.9768 17.9331 77.1049 18.0022 77.2019 18.0955C77.2988 18.1888 77.3819 18.3029 77.4546 18.4411C77.5274 18.5794 77.5932 18.7418 77.652 18.9216C77.7144 19.1047 77.7905 19.3087 77.884 19.5368L78.6112 21.5691H76.5335L76.1041 20.2211C76.0037 19.8997 75.9102 19.637 75.8202 19.4296C75.7302 19.2223 75.6332 19.0598 75.5293 18.9388C75.4254 18.8179 75.3077 18.7349 75.1761 18.6865C75.0445 18.6381 74.8852 18.6174 74.7017 18.6174H74.2827V21.5691H72.2881V14.1035Z" fill="#9A1032"/>
<path d="M79.4702 14.1035H81.4648V20.0932H84.5502V21.5691H79.4702V14.1035Z" fill="#9A1032"/>
<path d="M87.2412 20.0932H88.0134C88.7648 20.0932 89.3397 19.9031 89.7379 19.5264C90.1396 19.1497 90.3404 18.5863 90.3404 17.8363C90.3404 17.0863 90.1361 16.5229 89.7275 16.1462C89.3189 15.7694 88.751 15.5793 88.0134 15.5793H87.2412V20.0932ZM85.2466 14.1035H87.9684C88.6194 14.1035 89.215 14.1623 89.7587 14.2763C90.3023 14.3904 90.7663 14.5874 91.1576 14.8708C91.5455 15.1508 91.8502 15.531 92.0684 16.0114C92.2865 16.4883 92.3973 17.0897 92.3973 17.8086C92.3973 18.5275 92.2865 19.0978 92.0649 19.5748C91.8433 20.0518 91.5351 20.4389 91.1438 20.7361C90.7525 21.0333 90.2816 21.2442 89.7379 21.379C89.1942 21.5103 88.6055 21.576 87.9684 21.576H85.2466V14.1104V14.1035Z" fill="#9A1032"/>
<path fill-rule="evenodd" clip-rule="evenodd" d="M29.2847 14.1036V21.5691H31.6117V18.8732H33.2877L33.8833 17.2418H31.6117V15.728H34.4339L35.0295 14.1001H29.2847V14.1036Z" fill="#9A1032"/>
<path fill-rule="evenodd" clip-rule="evenodd" d="M35.7432 21.5691H38.0702V14.1035H35.7432V21.5691Z" fill="#9A1032"/>
<path fill-rule="evenodd" clip-rule="evenodd" d="M39.6738 14.1036V21.5691H42.0043V18.8732H43.6803L44.2759 17.2418H42.0043V15.728H44.8265L45.4221 14.1001H39.6738V14.1036Z" fill="#9A1032"/>
<path fill-rule="evenodd" clip-rule="evenodd" d="M49.0447 19.1324L48.1132 16.0217L47.2128 19.1324H49.0447ZM52.0853 21.5691H49.7339L49.4291 20.5667H46.7973L46.5064 21.5691H44.2139L46.9392 14.1035H49.3599L52.0853 21.5691Z" fill="#9A1032"/>
<defs>
<linearGradient id="paint0_linear_291_28130" x1="8.24135" y1="25.7411" x2="12.5737" y2="15.1078" gradientUnits="userSpaceOnUse">
<stop stop-color="#858380"/>
<stop offset="1" stop-color="#A19F9C"/>
</linearGradient>
<linearGradient id="paint1_linear_291_28130" x1="11.341" y1="0.360023" x2="17.2066" y2="15.9921" gradientUnits="userSpaceOnUse">
<stop stop-color="#B4B4B4"/>
<stop offset="1" stop-color="#9A9896"/>
</linearGradient>
<linearGradient id="paint2_linear_291_28130" x1="20.763" y1="27.2319" x2="11.8436" y2="2.21601" gradientUnits="userSpaceOnUse">
<stop stop-color="#9D9B98"/>
<stop offset="1" stop-color="#F2EFEA"/>
</linearGradient>
<linearGradient id="paint3_linear_291_28130" x1="8.61552" y1="41.0354" x2="8.61552" y2="6.60412" gradientUnits="userSpaceOnUse">
<stop stop-color="#9D9B98"/>
<stop offset="1" stop-color="#F2EFEA"/>
</linearGradient>
<linearGradient id="paint4_linear_291_28130" x1="11.8895" y1="5.78012" x2="11.8895" y2="22.7164" gradientUnits="userSpaceOnUse">
<stop stop-color="#F2EFEA"/>
<stop offset="1" stop-color="#F2EFEA"/>
</linearGradient>
<linearGradient id="paint5_linear_291_28130" x1="6.12245" y1="4.85985" x2="11.6815" y2="1.22695" gradientUnits="userSpaceOnUse">
<stop stop-color="#FAF6F2"/>
<stop offset="1" stop-color="#FFFBF7"/>
</linearGradient>
<linearGradient id="paint6_linear_291_28130" x1="5.60353" y1="1.90492" x2="11.9601" y2="1.90492" gradientUnits="userSpaceOnUse">
<stop stop-color="#B0AEAB"/>
<stop offset="1" stop-color="#FAF6F2"/>
</linearGradient>
<linearGradient id="paint7_linear_291_28130" x1="22.1716" y1="5.7011" x2="13.5056" y2="0.959211" gradientUnits="userSpaceOnUse">
<stop stop-color="#FFFBF7"/>
<stop offset="0.53" stop-color="#FFFBF7"/>
<stop offset="1" stop-color="#B4B2AF"/>
</linearGradient>
<linearGradient id="paint8_linear_291_28130" x1="7.38837" y1="1.10031" x2="17.995" y2="1.10031" gradientUnits="userSpaceOnUse">
<stop stop-color="#CCC9C6"/>
<stop offset="1" stop-color="#FAF6F2"/>
</linearGradient>
<linearGradient id="paint9_linear_291_28130" x1="4.5045" y1="2.60323" x2="3.38898" y2="22.1168" gradientUnits="userSpaceOnUse">
<stop stop-color="#FFFBF7"/>
<stop offset="1" stop-color="#FFFBF7"/>
</linearGradient>
<linearGradient id="paint10_linear_291_28130" x1="8.24467" y1="31.4998" x2="19.8569" y2="31.4998" gradientUnits="userSpaceOnUse">
<stop stop-color="#DAD7D3"/>
<stop offset="1" stop-color="#FAF6F2"/>
</linearGradient>
<linearGradient id="paint11_linear_291_28130" x1="7.37645" y1="15.0816" x2="6.99379" y2="7.79005" gradientUnits="userSpaceOnUse">
<stop stop-color="#E8E8E8"/>
<stop offset="1" stop-color="#FAF6F2"/>
</linearGradient>
<linearGradient id="paint12_linear_291_28130" x1="14.7479" y1="42.0635" x2="9.29418" y2="19.4471" gradientUnits="userSpaceOnUse">
<stop stop-color="#FAF6F2"/>
<stop offset="0.51" stop-color="#FFFBF7"/>
<stop offset="0.68" stop-color="#FFFBF7"/>
<stop offset="0.9" stop-color="#EBE7E3"/>
<stop offset="1" stop-color="#CCC9C6"/>
</linearGradient>
<linearGradient id="paint13_linear_291_28130" x1="6.25689" y1="5.84274" x2="2.56585" y2="12.2676" gradientUnits="userSpaceOnUse">
<stop stop-color="#791426"/>
<stop offset="0.53" stop-color="#AF1C3B"/>
<stop offset="1" stop-color="#791426"/>
</linearGradient>
<linearGradient id="paint14_linear_291_28130" x1="6.52817" y1="5.68007" x2="2.83606" y2="12.1068" gradientUnits="userSpaceOnUse">
<stop stop-color="#791426"/>
<stop offset="0.53" stop-color="#AF1C3B"/>
<stop offset="1" stop-color="#791426"/>
</linearGradient>
<linearGradient id="paint15_linear_291_28130" x1="7.49443" y1="6.51767" x2="3.80338" y2="12.9426" gradientUnits="userSpaceOnUse">
<stop stop-color="#791426"/>
<stop offset="0.53" stop-color="#AF1C3B"/>
<stop offset="1" stop-color="#791426"/>
</linearGradient>
<linearGradient id="paint16_linear_291_28130" x1="7.44269" y1="58.8489" x2="21.3449" y2="25.5402" gradientUnits="userSpaceOnUse">
<stop stop-color="#791426"/>
<stop offset="0.53" stop-color="#AF1C3B"/>
<stop offset="1" stop-color="#791426"/>
</linearGradient>
<linearGradient id="paint17_linear_291_28130" x1="6.46314" y1="15.785" x2="22.679" y2="52.3831" gradientUnits="userSpaceOnUse">
<stop stop-color="#791426"/>
<stop offset="0.53" stop-color="#AF1C3B"/>
<stop offset="1" stop-color="#791426"/>
</linearGradient>
</defs>
</svg>
