<svg width="67" height="27" viewBox="0 0 67 27" fill="none" xmlns="http://www.w3.org/2000/svg">
<rect x="2.0293" y="11.5" width="2.8285" height="2.8285" rx="1" transform="rotate(45 2.0293 11.5)" fill="#8E0F3F"/>
<rect x="16.0293" y="9.5" width="5.65676" height="5.65676" rx="1" transform="rotate(45 16.0293 9.5)" fill="#8E0F3F"/>
<rect x="33.5146" y="8.01465" width="7.75736" height="7.75736" rx="1" transform="rotate(45 33.5146 8.01465)" fill="#8E0F3F"/>
<path d="M57 3.5C51.48 3.5 47 7.98 47 13.5C47 19.02 51.48 23.5 57 23.5C62.52 23.5 67 19.02 67 13.5C67 7.98 62.52 3.5 57 3.5ZM58 6.8L59.35 5.85C61.17 6.41 62.72 7.61 63.73 9.19L63.34 10.53L61.99 10.99L58 8.2V6.8ZM54.65 5.85L56 6.8V8.2L52.01 10.99L50.66 10.53L50.27 9.19C51.28 7.62 52.83 6.42 54.65 5.85ZM52.08 18.61L50.94 18.71C49.73 17.31 49 15.49 49 13.5C49 13.38 49.01 13.27 49.02 13.15L50.02 12.42L51.4 12.9L52.86 17.24L52.08 18.61ZM59.5 21.09C58.71 21.35 57.87 21.5 57 21.5C56.13 21.5 55.29 21.35 54.5 21.09L53.81 19.6L54.45 18.5H59.56L60.2 19.61L59.5 21.09ZM59.27 16.5H54.73L53.38 12.48L57 9.94L60.63 12.48L59.27 16.5ZM63.06 18.71L61.92 18.61L61.13 17.24L62.59 12.9L63.98 12.43L64.98 13.16C64.99 13.27 65 13.38 65 13.5C65 15.49 64.27 17.31 63.06 18.71Z" fill="#8E0F3F"/>
</svg>
