<svg width="91" height="26" viewBox="0 0 91 26" fill="none" xmlns="http://www.w3.org/2000/svg">
<path d="M39.789 20.3651C39.2932 20.3651 39.0826 19.709 39.0826 17.905C39.0826 16.9692 39.5427 16.7344 40.8519 16.7344C41.1955 16.7344 41.4709 16.7344 41.7334 16.7408C41.3154 18.0175 40.7547 20.3651 39.789 20.3651ZM37.1317 19.1334C37.1317 19.6126 37.1771 20.0178 37.2614 20.3651H30.333C29.4126 20.3651 28.8228 20.1528 28.8228 19.3103V16.9692H31.0038C31.182 16.4418 31.2987 15.9594 31.357 15.4481H28.8196C28.8293 14.7245 28.8844 14.0781 28.9363 13.3385C28.1099 13.6311 27.4618 13.972 26.9303 14.5573V15.4481H25.8091C25.7151 16.0816 25.7151 16.5607 25.6924 16.9692H26.9303V19.4293C26.9303 21.153 27.9803 21.8894 29.4223 21.8894H38.8428C39.9964 21.8894 40.8844 20.9504 41.7366 18.8247V21.8894H43.6259V15.4481C42.7769 15.3773 41.9959 15.3291 41.1468 15.3291C38.8104 15.3291 37.1317 16.2906 37.1317 19.1366V19.1334ZM47.048 18.4227V17.7892C47.048 16.9692 46.9897 16.2649 46.8697 15.4481H45.0388C45.0971 16.2681 45.1555 16.9692 45.1555 17.7892V21.8894H47.0447C47.0447 19.5933 47.7868 16.9788 49.7604 17.2618C49.7604 16.8502 49.702 15.9144 49.5854 15.3291C48.1465 15.4545 47.4401 16.7119 47.048 18.4227ZM21.0292 20.3683C20.5334 20.3683 20.3195 19.7123 20.3195 17.9082C20.3195 16.9724 20.7797 16.7376 22.0889 16.7376C22.4324 16.7376 22.7078 16.7376 22.9736 16.7441C22.5555 18.0207 21.9949 20.3683 21.026 20.3683H21.0292ZM18.3719 19.1366C18.3719 21.0822 19.0784 22.0084 20.0246 22.0084C21.1815 22.0084 22.1051 20.9922 22.9768 18.8247V21.8926H24.8661V15.4513C24.017 15.3805 23.236 15.3323 22.387 15.3323C20.0505 15.3323 18.3751 16.2938 18.3751 19.1398L18.3719 19.1366ZM79.9271 16.1523C79.9271 14.5476 78.8059 13.5765 76.7999 13.5765C75.6917 13.5765 74.875 13.8112 74.3792 14.046C74.0973 14.4447 73.9677 14.9014 73.7894 15.6249C74.5445 15.3323 75.2769 15.0975 76.3851 15.0975C77.2698 15.0975 77.9795 15.4738 77.9795 16.5029C77.9795 17.6155 77.2828 18.4227 73.4913 20.6031C73.4913 20.8378 73.5042 21.3073 73.6112 21.8926H79.8656C80.0438 21.3652 80.1604 20.8957 80.2188 20.3683H74.8945C77.555 19.4646 79.9239 18.5224 79.9239 16.1491L79.9271 16.1523ZM13.9226 20.0917L13.8253 20.0403C12.6911 19.4421 11.168 18.5288 11.168 16.8663C11.168 15.342 12.1597 14.628 13.3522 14.628C14.6744 14.628 15.478 15.5542 15.478 17.1718C15.478 18.2844 14.8591 19.2685 13.9226 20.0917ZM17.5455 22.0084L14.4346 20.3619C16.1942 19.7283 17.484 18.4742 17.484 16.699C17.484 14.3097 15.6757 13.1037 13.3522 13.1037C11.2167 13.1037 9.16211 14.464 9.16211 17.0881C9.16211 19.3006 10.8634 20.6256 12.7268 21.5967L18.7251 24.7C18.7251 23.3301 18.5599 22.5454 17.5455 22.0052V22.0084ZM61.7441 21.3009C61.2127 21.3009 59.5599 20.2332 59.5599 17.3776C59.5599 15.969 60.3863 15.0943 61.7441 15.0943C63.1019 15.0943 63.9283 15.9723 63.9283 17.3776C63.9283 20.2332 62.2756 21.3009 61.7441 21.3009ZM61.7441 13.57C59.385 13.57 57.6123 14.9753 57.6123 17.2618C57.6123 20.2493 60.5062 22.0052 61.7441 22.0052C62.982 22.0052 65.8759 20.2461 65.8759 17.2618C65.8759 14.9786 64.1065 13.57 61.7441 13.57ZM61.77 16.7633C61.3585 17.056 61.002 17.3969 60.6909 17.786C61.002 18.1751 61.3585 18.516 61.77 18.8086C62.1816 18.516 62.5348 18.1751 62.8524 17.786C62.5381 17.3969 62.1848 17.0528 61.77 16.7633ZM72.6066 16.1459C72.6066 14.5412 71.4854 13.57 69.4762 13.57C68.3679 13.57 67.5513 13.8048 67.0555 14.0395C66.7735 14.4383 66.6439 14.895 66.4657 15.6185C67.2207 15.3259 67.9531 15.0911 69.0646 15.0911C69.9493 15.0911 70.659 15.4674 70.659 16.4964C70.659 17.6091 69.9623 18.4163 66.174 20.5966C66.174 20.8314 66.187 21.3009 66.2907 21.8862H72.5483C72.7233 21.3588 72.8432 20.8893 72.9015 20.3619H67.5772C70.2377 19.4582 72.6066 18.516 72.6066 16.1427V16.1459ZM56.6693 16.1427C56.6693 14.538 55.5481 13.5668 53.5421 13.5668C52.4306 13.5668 51.6172 13.8016 51.1214 14.0363C50.8362 14.4351 50.7066 14.8917 50.5316 15.6153C51.2867 15.3227 52.0191 15.0879 53.1273 15.0879C54.012 15.0879 54.7217 15.4642 54.7217 16.4932C54.7217 17.6059 54.025 18.4131 50.2367 20.5934C50.2367 20.8282 50.2497 21.2977 50.3566 21.8829H56.6142C56.7925 21.3556 56.9091 20.886 56.9675 20.3586H51.6432C54.3037 19.455 56.6726 18.5128 56.6726 16.1395" fill="#9A1032"/>
<path d="M72.7821 10.8108C72.5132 10.8784 72.2215 10.9395 71.9007 11.0006C71.5799 11.0617 71.1814 11.0906 70.705 11.0906C70.2287 11.0906 69.762 11.0295 69.2857 10.9009C68.8061 10.7755 68.3751 10.5729 67.9927 10.2931C67.6071 10.0133 67.2928 9.64671 67.0498 9.19328C66.8035 8.73985 66.6836 8.18351 66.6836 7.52426C66.6836 6.91969 66.7841 6.39229 66.985 5.93564C67.1859 5.48221 67.4645 5.10274 67.821 4.80045C68.1774 4.49817 68.6052 4.27306 69.0945 4.12513C69.587 3.97399 70.1185 3.90002 70.6953 3.90002C71.0582 3.90002 71.4082 3.9354 71.7484 4.00293C72.0887 4.07046 72.4322 4.15729 72.7724 4.25698L72.6234 5.76199C72.322 5.59477 72.0239 5.47257 71.7257 5.39217C71.4276 5.31177 71.1165 5.27318 70.799 5.27318C70.4814 5.27318 70.1638 5.32785 69.8949 5.44362C69.6259 5.55617 69.3991 5.71054 69.2079 5.90992C69.0167 6.1093 68.8709 6.34727 68.7672 6.62383C68.6635 6.89718 68.6117 7.19946 68.6117 7.52426C68.6117 7.84906 68.67 8.16743 68.7867 8.44078C68.9033 8.71091 69.0621 8.94245 69.2662 9.13218C69.4704 9.32191 69.7167 9.46663 70.0018 9.56632C70.2902 9.66601 70.6046 9.71424 70.9448 9.71424C71.2526 9.71424 71.5572 9.67887 71.8586 9.60813C72.16 9.54059 72.4354 9.45376 72.6914 9.35407L72.7821 10.8076V10.8108Z" fill="#9A1032"/>
<path d="M79.5033 8.33144C79.5033 8.81059 79.4288 9.219 79.283 9.56631C79.1372 9.91041 78.9265 10.1966 78.6576 10.4217C78.3854 10.6468 78.0613 10.8141 77.6854 10.9234C77.3063 11.0327 76.8915 11.0874 76.4346 11.0874C75.9777 11.0874 75.5629 11.0327 75.187 10.9234C74.8111 10.8141 74.4871 10.6468 74.2149 10.4217C73.9427 10.1966 73.7353 9.91041 73.5895 9.56631C73.4437 9.219 73.3691 8.81059 73.3691 8.33144V4.02222H75.2356V8.02271C75.2356 8.25425 75.2551 8.47293 75.2907 8.67553C75.3264 8.87812 75.3912 9.05821 75.4819 9.21257C75.5727 9.36693 75.6958 9.49235 75.8481 9.57917C76.0004 9.66922 76.1981 9.71424 76.4379 9.71424C76.6776 9.71424 76.8753 9.66922 77.0309 9.57917C77.1864 9.48913 77.3063 9.36693 77.397 9.21257C77.4878 9.05499 77.5493 8.87812 77.5882 8.67553C77.6239 8.47293 77.6433 8.25747 77.6433 8.02271V4.02222H79.5098V8.33144H79.5033Z" fill="#9A1032"/>
<path d="M82.2994 7.2284H82.779C82.941 7.2284 83.0901 7.21232 83.2294 7.18338C83.3688 7.15122 83.4919 7.09977 83.5956 7.02259C83.6993 6.94541 83.7803 6.84572 83.8419 6.72352C83.9002 6.60132 83.9326 6.45017 83.9326 6.27009C83.9326 6.09 83.9035 5.94207 83.8419 5.82308C83.7803 5.7041 83.6993 5.60762 83.5956 5.53366C83.4919 5.45969 83.3688 5.40824 83.2294 5.3793C83.0901 5.34714 82.9378 5.33428 82.779 5.33428H82.2994V7.22519V7.2284ZM80.4329 4.02222H82.6591C83.735 4.02222 84.5289 4.20552 85.0376 4.57534C85.5464 4.94516 85.7991 5.52079 85.7991 6.30224C85.7991 7.00651 85.5561 7.55642 85.0668 7.94875C84.5775 8.3443 83.897 8.54046 83.0188 8.54046H82.2962V10.9684H80.4297V4.02222H80.4329Z" fill="#9A1032"/>
<path d="M27.7793 4.02222H29.6848L30.5889 9.35728H30.6083L31.5514 4.02222H33.917L34.8989 9.35728H34.9183L35.8322 4.02222H37.6469L36.0817 10.9684H33.6869L32.6953 5.63335H32.6758L31.7523 10.9684H29.3348L27.7793 4.02222Z" fill="#9A1032"/>
<path d="M39.6462 7.49534C39.6462 7.78155 39.6753 8.05811 39.7369 8.32824C39.7952 8.59516 39.8892 8.83313 40.0156 9.03894C40.1419 9.24476 40.3072 9.40876 40.5081 9.53097C40.709 9.65317 40.9488 9.71427 41.2307 9.71427C41.5127 9.71427 41.7525 9.65317 41.9534 9.53097C42.1543 9.40876 42.3163 9.24476 42.4427 9.03894C42.5691 8.83313 42.663 8.59516 42.7246 8.32824C42.7829 8.05811 42.8153 7.78155 42.8153 7.49534C42.8153 7.20913 42.7862 6.91328 42.7246 6.64636C42.663 6.37623 42.5691 6.14148 42.4427 5.93888C42.3163 5.73628 42.1543 5.57549 41.9534 5.45651C41.7525 5.33752 41.5094 5.27964 41.2307 5.27964C40.9521 5.27964 40.709 5.33752 40.5081 5.45651C40.3072 5.57549 40.1419 5.73628 40.0156 5.93888C39.8892 6.14148 39.7952 6.37945 39.7369 6.64636C39.6753 6.91328 39.6462 7.19949 39.6462 7.49534ZM37.7181 7.49534C37.7181 6.939 37.7926 6.43734 37.9449 5.99355C38.094 5.54977 38.3176 5.17351 38.6125 4.86479C38.9073 4.55607 39.2735 4.3181 39.711 4.15409C40.1484 3.98687 40.6572 3.90326 41.2307 3.90326C41.8043 3.90326 42.3131 3.98687 42.7505 4.15409C43.188 4.3181 43.5541 4.55607 43.849 4.86479C44.1439 5.17351 44.3643 5.54977 44.5166 5.99355C44.6656 6.43734 44.7402 6.939 44.7402 7.49534C44.7402 8.05168 44.6656 8.5437 44.5166 8.98749C44.3643 9.43127 44.1407 9.81074 43.8426 10.1227C43.5444 10.4346 43.1783 10.6726 42.7376 10.8398C42.3001 11.007 41.7946 11.0906 41.2275 11.0906C40.6604 11.0906 40.1484 11.007 39.711 10.8398C39.2767 10.6758 38.9106 10.4346 38.6125 10.1227C38.3143 9.81074 38.0907 9.43449 37.9417 8.98749C37.7926 8.5437 37.7148 8.04525 37.7148 7.49534" fill="#9A1032"/>
<path d="M47.3079 6.91003H47.7972C47.9463 6.91003 48.1018 6.9036 48.2638 6.89396C48.4291 6.88431 48.5749 6.85215 48.7045 6.8007C48.8342 6.74603 48.9443 6.66885 49.0286 6.56273C49.1161 6.4566 49.1582 6.30546 49.1582 6.10286C49.1582 5.94528 49.1193 5.81344 49.0416 5.71053C48.9638 5.60762 48.8666 5.53044 48.7402 5.47577C48.6138 5.42111 48.4712 5.38573 48.3092 5.36644C48.1472 5.34714 47.9754 5.33749 47.794 5.33749H47.3047V6.91003H47.3079ZM45.4414 4.02222H48.7694C49.0772 4.02222 49.3688 4.05759 49.641 4.12513C49.9165 4.19587 50.1563 4.30521 50.3637 4.44992C50.571 4.59464 50.7331 4.77794 50.8497 4.99661C50.9664 5.21529 51.0247 5.47577 51.0247 5.77484C51.0247 6.23792 50.9145 6.62061 50.6942 6.91968C50.4738 7.21876 50.1368 7.42135 49.6832 7.52748V7.54677C49.829 7.58536 49.9489 7.64968 50.0396 7.7365C50.1303 7.82333 50.2081 7.92945 50.2762 8.05809C50.3442 8.18672 50.4058 8.33786 50.4609 8.50509C50.5192 8.67553 50.5905 8.86526 50.678 9.0775L51.3585 10.9684H49.4142L49.0124 9.71424C48.9184 9.41517 48.8309 9.17076 48.7467 8.97781C48.6624 8.78486 48.5717 8.63372 48.4745 8.52117C48.3773 8.40861 48.2671 8.33143 48.1439 8.28641C48.0208 8.24139 47.8717 8.22209 47.7 8.22209H47.3079V10.9684H45.4414V4.02222Z" fill="#9A1032"/>
<path d="M52.1621 4.02222H54.0286V9.59525H56.9159V10.9684H52.1621V4.02222Z" fill="#9A1032"/>
<path d="M59.4329 9.59525H60.1555C60.8587 9.59525 61.3966 9.41838 61.7693 9.06786C62.1452 8.71733 62.3331 8.19315 62.3331 7.49532C62.3331 6.79748 62.1419 6.2733 61.7596 5.92277C61.3772 5.57225 60.8457 5.39538 60.1555 5.39538H59.4329V9.59525ZM57.5664 4.02222H60.1134C60.7226 4.02222 61.28 4.07689 61.7887 4.18301C62.2975 4.28913 62.7317 4.47243 63.0979 4.73613C63.4608 4.99661 63.746 5.35036 63.9501 5.79736C64.1543 6.24114 64.2579 6.8007 64.2579 7.46959C64.2579 8.13848 64.1543 8.66909 63.9469 9.11288C63.7395 9.55666 63.4511 9.91684 63.0849 10.1934C62.7187 10.47 62.278 10.6661 61.7693 10.7915C61.2605 10.9137 60.7097 10.9748 60.1134 10.9748H57.5664V4.02865V4.02222Z" fill="#9A1032"/>
<path fill-rule="evenodd" clip-rule="evenodd" d="M5.19922 4.02223V10.9684H7.37681V8.46008H8.94519L9.50255 6.9422H7.37681V5.53367H10.0178L10.5751 4.01901H5.19922V4.02223Z" fill="#9A1032"/>
<path fill-rule="evenodd" clip-rule="evenodd" d="M11.2422 10.9684H13.4198V4.02222H11.2422V10.9684Z" fill="#9A1032"/>
<path fill-rule="evenodd" clip-rule="evenodd" d="M14.9219 4.02223V10.9684H17.1027V8.46008H18.6711L19.2284 6.9422H17.1027V5.53367H19.7437L20.301 4.01901H14.9219V4.02223Z" fill="#9A1032"/>
<path fill-rule="evenodd" clip-rule="evenodd" d="M23.6906 8.70125L22.8188 5.807L21.9763 8.70125H23.6906ZM26.5358 10.9684H24.3354L24.0503 10.0358H21.5874L21.3152 10.9684H19.1699L21.7203 4.02222H23.9855L26.5358 10.9684Z" fill="#9A1032"/>
</svg>
